<?xml version="1.0" standalone="no"?>
<!DOCTYPE svg PUBLIC "-//W3C//DTD SVG 20010904//EN"
 "http://www.w3.org/TR/2001/REC-SVG-20010904/DTD/svg10.dtd">
<svg version="1.0" xmlns="http://www.w3.org/2000/svg"
 width="700.000000pt" height="700.000000pt" viewBox="0 0 700.000000 700.000000"
 preserveAspectRatio="xMidYMid meet">
<metadata>
Created by potrace 1.11, written by Peter Selinger 2001-2013
</metadata>
<g transform="translate(0.000000,700.000000) scale(0.100000,-0.100000)"
fill="#000000" stroke="none">
<path d="M3 6093 c4 -785 6 -918 20 -983 9 -41 19 -87 22 -103 22 -111 122
-348 197 -467 86 -136 233 -303 361 -408 188 -154 496 -292 732 -328 28 -4 57
-10 65 -12 8 -3 421 -7 918 -9 l903 -4 -4 908 c-3 811 -5 917 -20 988 -21 96
-46 192 -57 220 -4 11 -20 52 -35 90 -45 119 -175 348 -221 390 -6 6 -19 21
-28 35 -36 54 -186 197 -286 272 -156 117 -427 244 -584 274 -220 42 -192 41
-1109 43 l-878 2 4 -908z"/>
<path d="M5164 6984 c-260 -37 -524 -144 -729 -296 -20 -14 -170 -143 -185
-158 -152 -154 -278 -349 -359 -553 -31 -77 -75 -234 -86 -302 -4 -22 -9 -51
-12 -65 -3 -14 -8 -431 -10 -928 l-4 -902 873 1 c999 1 1006 2 1258 86 507
170 910 606 1039 1123 21 86 23 97 41 225 5 40 9 436 10 928 l0 857 -872 -1
c-658 -1 -895 -5 -964 -15z"/>
<path d="M1647 3204 c-1 -1 -56 -4 -122 -7 -128 -7 -234 -23 -365 -56 -49 -13
-74 -22 -195 -72 -479 -198 -842 -649 -945 -1174 -18 -95 -19 -149 -20 -998
l0 -897 932 0 c1002 1 965 -1 1143 54 290 88 552 261 765 506 31 37 135 186
159 230 92 169 165 368 186 508 3 20 9 62 14 92 5 30 10 450 10 933 l1 877
-32 0 c-154 2 -1530 5 -1531 4z"/>
<path d="M3832 3202 l-63 -3 2 -867 c0 -477 5 -894 10 -927 5 -33 11 -71 13
-85 29 -192 133 -454 246 -620 48 -70 52 -76 132 -170 170 -202 435 -378 698
-464 208 -69 161 -66 1190 -66 l930 0 -1 858 c0 471 -5 891 -10 932 -68 549
-417 1027 -922 1263 -44 20 -83 37 -88 37 -5 0 -17 4 -27 9 -19 11 -124 43
-192 60 -87 21 -166 31 -275 37 -114 6 -1532 11 -1643 6z"/>
</g>
</svg>
