<?xml version="1.0" standalone="no"?>
<!DOCTYPE svg PUBLIC "-//W3C//DTD SVG 20010904//EN"
 "http://www.w3.org/TR/2001/REC-SVG-20010904/DTD/svg10.dtd">
<svg version="1.0" xmlns="http://www.w3.org/2000/svg"
 width="700.000000pt" height="700.000000pt" viewBox="0 0 700.000000 700.000000"
 preserveAspectRatio="xMidYMid meet">
<metadata>
Created by potrace 1.11, written by Peter Selinger 2001-2013
</metadata>
<g transform="translate(0.000000,700.000000) scale(0.100000,-0.100000)"
fill="#000000" stroke="none">
<path d="M1 6083 c2 -960 1 -928 43 -1150 12 -65 77 -248 117 -331 195 -407
540 -718 959 -865 91 -32 208 -62 273 -72 27 -3 59 -9 70 -13 12 -3 444 -8
960 -9 l938 -4 -4 938 c-2 516 -7 954 -11 973 -9 48 -26 131 -31 163 -12 66
-81 252 -131 354 -80 161 -176 296 -307 432 -198 204 -473 366 -747 440 -72
19 -95 25 -169 37 -18 3 -43 8 -55 12 -11 3 -445 7 -964 9 l-943 4 2 -918z"/>
<path d="M5169 6996 c-2 -2 -29 -6 -60 -9 -31 -4 -76 -11 -100 -16 -24 -6 -58
-12 -74 -15 -17 -3 -76 -20 -130 -37 -376 -119 -702 -374 -910 -710 -126 -203
-190 -378 -241 -659 -4 -19 -9 -457 -11 -973 l-4 -938 938 4 c516 2 954 7 973
11 19 3 71 14 114 22 44 8 88 20 98 25 10 5 18 7 18 5 0 -10 177 57 275 104
187 90 301 174 471 345 126 127 228 271 305 431 48 99 113 282 124 347 3 18 8
40 11 50 29 94 32 217 33 1105 l1 913 -914 -1 c-502 -1 -915 -3 -917 -4z"/>
<path d="M1460 3345 c-610 -83 -1119 -481 -1344 -1051 -35 -89 -80 -249 -91
-322 -3 -21 -9 -66 -14 -102 -5 -36 -10 -471 -10 -968 l-1 -903 942 4 c519 1
952 6 963 9 11 3 40 9 65 13 74 12 79 13 174 41 352 101 643 302 886 611 59
75 146 231 213 383 14 32 62 187 73 235 38 171 37 151 41 1123 l4 942 -903 -1
c-674 -1 -927 -5 -998 -14z"/>
<path d="M3643 2428 c2 -513 7 -951 10 -973 4 -22 9 -51 12 -65 3 -14 7 -34 9
-46 55 -292 212 -592 430 -822 131 -139 348 -296 501 -361 28 -12 58 -26 69
-32 27 -16 187 -67 259 -84 69 -16 100 -21 202 -34 39 -5 474 -10 968 -10
l898 -1 -1 923 c-1 507 -5 943 -10 967 -5 25 -16 83 -25 130 -37 193 -125 406
-239 580 -90 137 -178 237 -325 368 -27 25 -171 128 -206 149 -122 72 -373
176 -477 197 -13 3 -48 9 -78 15 -30 6 -68 14 -85 18 -16 3 -454 8 -973 10
l-943 4 4 -933z"/>
</g>
</svg>
