<svg xmlns="http://www.w3.org/2000/svg" version="1" viewBox="0 0 356 200"><path d="M104.3 4.3a73.7 73.7 0 0 0-8.6 16.8c-.3.9-2.2 2-4.4 2.4l-3.8.6c0-.1-2.7.7-5.9 1.9a61.1 61.1 0 0 0-38.3 36.8 56.2 56.2 0 0 0-3.7 13.9c-.3 1.9-1 2.3-5.7 2.9-5.6.8-22.2 6-26.4 8.4C-.3 92.4 0 91.9 0 99.3v6.8l3.7 1.5a84 84 0 0 0 27.3 1c13.6-1.9 12.7-2 13.8 1.3a61.7 61.7 0 0 0 21.9 25.7c4.1 2.7 5.3 4.1 5.4 6.2a141.6 141.6 0 0 1 1.4 13.2l.9 8.6c.4 2.2 1.6 11.8 2.1 16.9.4 4.7 1.6 13.7 2.1 16.8.5 2.2 1.1 2.7 3.6 2.7h3l-.7-6.3a80 80 0 0 0-1-7.7c-.2-.8-.7-4.2-1-7.5-.4-3.3-.8-7.4-1.1-9a642 642 0 0 1-.9-8.5c-.3-3-.8-7.3-1.2-9.5-1-7.2-.8-9 .7-8.7l3 .8a59.4 59.4 0 0 0 27 1.9l5.3-.9c.9 0 1.7-.5 1.7-1s.3-.7.6-.3c.8.7 11.5-3.3 13.2-5 .7-.7 1.7-1.3 2.2-1.3.5 0 3.5-2.1 6.5-4.6 3.1-2.5 5.8-4.4 6-4.2.7.9 3.7 8.5 7.5 19.3 2.3 6.6 4.7 13.3 5.5 15L166 181l7.1 17.3c1 1.8 6.9 2.5 6.9.8 0-.5-1.5-4.5-3.4-8.8A688.4 688.4 0 0 1 162 154l-4.7-13-.8-2-.8-2-3-8.5-2.4-7 2.8-4.4A61.8 61.8 0 0 0 133 31.4c0-.7 8-4.4 8-3.7 0 .5.4.3.8-.2.4-.6 3.2-1.8 6.2-2.9 12.6-4.2 13.8-4.8 13.5-6.4l-.4-2.4c-.1-.6-7.6-3.4-12.2-4.4-5.9-1.3-19-.5-24.3 1.6-2.8 1-3.3.2-1.6-2.9a23 23 0 0 0 1.4-4.2c.2-1.3.7-3.2 1.1-4.2.7-1.6.3-1.8-3-1.5l-3.9.3-2.7 9.5c-1.8 6.6-2.4 10-1.8 11.2 1.2 2.3 2.1 2.3 9.4-.6 6.2-2.5 16.6-3.8 20.1-2.5 1.6.6 1.5.8-1.1 1.4a126 126 0 0 0-38.6 23.8c-1.6 2-1.6 2-2.1-.1a50 50 0 0 1-.6-9.5 42.4 42.4 0 0 1 12.3-29.3c1.9-2 3.5-3.8 3.5-4 0-.2-2.1-.4-4.7-.4-4.5.1-5 .4-8 4.3zm-9.7 33.4c.1 4.3.9 9.8 1.6 12.3 2 6.6 4.1 6.4 11.9-1.2 3.6-3.5 9-8 12.1-10.1 5-3.4 5.8-3.7 8.2-2.6 1.4.7 2.6 1.6 2.6 2.1 0 .4.6.8 1.3.8 1.1 0 7.7 5.5 7.7 6.5a4181.5 4181.5 0 0 0-40.1 23.1 30.2 30.2 0 0 1-6.8 3.4c-.6 0-1.1.4-1.1 1 0 .5-.4 1-.9 1s-6.4 3.1-13.1 7l-12.6 7-4.2 2.3a58.5 58.5 0 0 1-13.9 7.4c-1.8-1.9-2-20.2-.3-26.7a64.7 64.7 0 0 1 20.7-31.2c2.6-2 11.8-6.8 14.2-7.3a170.6 170.6 0 0 1 12-2.9c.2.2.5 3.8.7 8.1zm53.8 18.1a54.6 54.6 0 0 1-.9 58.2c-5.2 8-6.7 9.7-12.9 14.4-19.5 14.8-44.1 15.2-66.4.8A56.9 56.9 0 0 1 55 115.4c0-.7-.4-1.4-.9-1.6a16 16 0 0 1-2.9-4.5l-2-4.2 16.7-9.4 20.6-11.8 15-8.5c34.2-19.4 43-24.2 43.8-23.7a22 22 0 0 1 3.1 4.1zM39.5 90c.1 1.9.5 4.9.9 6.6.5 2.5.3 3.3-1 3.8a92.3 92.3 0 0 1-33.9.6l-3-1.2 3.2-2.7A84 84 0 0 1 34 86.4c.2-.3 1.5-.4 2.9-.2 2 .2 2.4.9 2.6 3.8z"/><path d="M142.3 77.2c-1.9 2.5-2.1 4.6-.6 6.7 2.2 3.2 6.4 2.5 8.2-1.3 1.3-2.7 1.2-3.1-.9-4.8-2.6-2.1-5.3-2.3-6.7-.6zM136.2 94.1c-6.6 3.1-11 5-12.7 5.5l-8.4 2.3a28.7 28.7 0 0 1-8.2 1.5c-.5-.3-.9-.2-.9.3 0 .4-2.1.9-4.8 1.1-5.2.3-7.6 2-6.7 4.5.9 2.1 3 2.5 8.5 1.5l7.5-1.4c1.7-.2 3.8-.7 4.7-1l3.5-.9c6.8-1.4 25.3-9.5 27.3-12 1.6-1.9.6-4.5-1.7-4.5-1 .1-4.6 1.4-8.1 3.1zM83.7 95.8c-1.8 2-1.5 6.1.5 7.4 3.4 2.1 7.8-.2 7.8-4.2 0-4.6-5.2-6.6-8.3-3.2zM236.9.3c-.8 2.5-.7 4.7.3 4.1.8-.5.9-.2.5 1-.4.9-.3 1.5.2 1.2 1.5-1 1.9-5.5.5-6-.8-.3-1.4-.4-1.5-.3zM230 9c0 6.4.3 8 1.5 8s1.5-1.6 1.5-8-.3-8-1.5-8-1.5 1.6-1.5 8zM242.3 9c0 6.1.3 8 1.3 8 1.5 0 1.8-1.4 1.5-7.3-.2-2.6.1-3.7.9-3.2.6.3 1 1.2.9 1.8-.1.7.1 2.9.5 4.9.6 2.8 1.3 3.8 2.7 3.8 1.4 0 2-1 2.5-5 .8-5.9 2.1-6.6 2.2-1.3 0 6 .1 6.3 1.6 6.3 1.1 0 1.4-1.7 1.2-7.8-.1-7.5-.2-7.7-2.6-8-1.9-.2-2.6.2-2.8 1.5l-.6 3.8c-.2 1.1-.5 2.9-.5 3.9-.1 2.4-1.9 1-2.4-1.9-1.1-6-2-7.5-4.1-7.5-2.1 0-2.3.4-2.3 8zM269.2 2.7a9.7 9.7 0 0 0-2.3 8c1.5 5.5 7.1 8.1 10.4 4.8 1.1-1 1.7-1.1 1.9-.3.7 2 2.8-.2 2.4-2.5-.3-1.2-.5-2.7-.5-3.3-.1-1.7-6.1-1.5-6.1.2 0 .8.7 1.4 1.6 1.4 2.8 0 .8 2.5-2.3 2.8-3.1.3-4.3-1.3-4.3-5.8 0-3.8 4.8-6.1 7.1-3.4 1.2 1.5 3.9 1.9 3.9.6 0-3.6-9.1-5.5-11.8-2.5zM286.7 2.5c-1 .7-2.1 3.1-2.4 5.3-.5 3.5-.1 4.5 2.2 6.7 2.2 2.3 3.2 2.6 6.2 2.2 4.3-.7 6.2-3.1 6.3-7.8 0-6.6-7.2-10.4-12.3-6.4zm6.7 1.1c2.1.8 3.2 7 1.6 8.9-1.5 1.8-5.6 2-6.7.2A6.2 6.2 0 0 1 289 5c2.2-2.2 2.2-2.2 4.4-1.4zM301.6 8.2c.2 9.2.2 8.8 1.7 8.8 1 0 1.3-1.5 1.2-5.5-.1-3 0-5.5.1-5.5.5 0 4.9 7.5 4.9 8.4 0 1.3 3.3 3.1 4.1 2.3.4-.4.8-4.1.8-8.2.1-6.3-.1-7.5-1.4-7.3-1.1.3-1.5 1.5-1.4 5.1.1 2.6-.1 4.7-.5 4.7-.3 0-1.8-2.1-3.2-4.8-1.5-2.9-3.3-4.8-4.5-5-1.9-.3-2 .2-1.8 7zM318 9c0 6.4.3 8 1.5 8s1.5-1.3 1.5-5.8l.1-5.7 3.2 5.7c4.7 8.4 6.4 7.8 6.4-2.2.1-6.2-.2-8-1.3-8-1.4 0-1.7 1-1.6 6.8 0 4-1.1 3.4-3.9-2.3-1.4-2.9-2.9-4.5-4.1-4.5-1.6 0-1.8.9-1.8 8zM336.2 7.2l-2.7 8c-.5 1.4-.2 1.8 1.4 1.8 1.2 0 2-.6 1.9-1.3-.2-.7 1.1-1.3 3.5-1.5 2.8-.2 3.7 0 3.7 1.2 0 .9.9 1.6 2 1.6 2 0 2-.1.4-3.8-1.8-4.1-1.8-4.3-2.9-9-.6-2.4-1.3-3.2-3-3.2-1.8 0-2.6 1.1-4.3 6.2zm5.7 2.4c.1.7-.8 1.4-1.9 1.7-1.7.4-1.9.1-1.4-2.1 1-4.1 1.7-4.8 2.5-2.6.4 1 .8 2.4.8 3zM230 35.5v8.2l5.1-.3c6.4-.3 8.1-1.9 8.3-7.8.1-6-1.6-7.6-8.2-8l-5.2-.2v8.1zm9-3.9c1.3 1.5 1.8 6.9.8 7.9-.2.3-1.8.8-3.5 1.1l-3 .6v-5.6c0-5.1.2-5.6 2.2-5.6 1.3 0 2.8.7 3.5 1.6zM248.4 29.3c-3.7 3.2-3.8 8.4-.2 11.9 1.8 1.8 3.4 2.6 5 2.3 3.7-.7 6.8-2.7 6.9-4.4l.4-3.9c.3-3.1-3.2-7-6.8-7.6-1.9-.3-3.5.2-5.3 1.7zm8.4 3.9c1.5 3.3.3 6.3-2.9 7.3-2.7.9-5.1-1.5-5.1-4.9 0-5.6 5.6-7.3 8-2.4zM274.6 27.8l-3.1 7.7c-2.5 6.8-2.2 10.7.6 6.8 1.2-1.6 2.8-1.9 6.9-1.4.6 0 1 .7 1 1.4s.8 1.3 1.8 1.3c1.6 0 1.6-.6-.8-7.1a114 114 0 0 0-3.3-8.3c-.9-1.4-2.3-1.6-3.1-.4zm3.3 8.9c.1 1.5-2.5 1.7-3.4.3-.3-.5-.1-2 .6-3.2 1.2-2.2 1.2-2.2 2-.3.4 1.1.8 2.6.8 3.2zM286.2 28.8c-.6 1.4-.8 6-.3 13.4.1 1 .7 1.5 1.4 1.2.9-.3 1.3-2 1.2-5-.2-5.1 1-5.3 3.5-.6 4.6 8.5 6.7 7.8 6.5-2.1-.3-9.3-.3-9.1-1.8-7.8-.8.6-1.3 2.7-1.2 5.1.1 2.3-.1 4.3-.4 4.5-.4.2-1.7-1.8-3-4.5-2.5-5.3-4.6-6.9-5.9-4.2zM230 62c0 7 .2 8 1.8 8 1.5 0 1.7-.9 1.4-8-.3-6.1-.7-8-1.8-8s-1.4 1.7-1.4 8zM236.4 61.7c.1 6.2.4 7.8 1.6 7.8 1.1 0 1.4-1.2 1.4-4.8-.1-2.6.2-4.7.5-4.7s1.7 2.1 3.1 4.7c1.4 2.7 3.3 4.9 4.3 5.1 1.5.3 1.7-.6 1.7-7.7 0-6.4-.3-8.1-1.4-8.1-1.1 0-1.4 1.2-1.2 5 .2 2.8-.1 5.3-.5 5.6-.5.3-.9.1-.9-.5 0-2.2-5.6-10.1-7.1-10.1-1.3 0-1.6 1.3-1.5 7.7zM251.3 55.6c0 .8 1 1.4 2.4 1.4 2.1 0 2.3.4 2.2 5.2-.2 7.4-.1 7.8 1.6 7.8 1.2 0 1.5-1.4 1.5-6.5 0-6.3.1-6.5 2.5-6.5 1.5 0 2.5-.6 2.5-1.4 0-1.1-1.5-1.5-6.3-1.5-4.9 0-6.4.4-6.4 1.5zM266.3 62c0 7.9.1 8 2.6 8.1 4.6.2 8.3 0 8.8-.5 1.3-1.3-1.1-2.4-4.6-2.1-3.5.3-3.8.1-3.8-2.1 0-2.1.4-2.4 3.8-2.4 5.3 0 5.4-2.7.2-3.2-5.6-.5-5.5-2.8.1-2.8 3.4 0 4.6-.4 4.6-1.5 0-1.2-1.3-1.5-5.9-1.5h-5.9l.1 8zM281.7 54.7a40 40 0 0 0 .2 15.8c1.2.7 2.1-.7 2.3-3.9.4-4.2 5.7-3 6.1 1.3.1 1.4.7 2.1 1.7 1.9 1.6-.4 2.1-3.4.9-5.9-.5-.9-.3-2.1.3-2.7 1.7-1.7.1-5.9-2.4-6.6-3.1-.8-8.3-.8-9.1.1zm8.9 3.4c1 1.7-2.1 4.2-4.3 3.5-1-.3-1.9-1.5-2-2.6-.1-1.6.4-2 2.7-2 1.6 0 3.2.5 3.6 1.1zM297 61.9c0 6.5.3 8.1 1.5 8.1 1.1 0 1.4-1.1 1.2-4.6-.2-2.5 0-4.7.4-4.9.3-.3 1.8 1.8 3.3 4.5 1.8 3.2 3.4 5 4.6 5 1.6 0 1.8-.9 1.8-7.5 0-6.9-.9-9.7-2.6-8-.4.3-.6 2.8-.5 5.5.1 5.6-.9 5.3-4.3-1.5-1.2-2.2-2.8-4.1-3.7-4.3-1.5-.3-1.7.8-1.7 7.7zM312.9 57.7c-.2 2.1-.2 5.8.1 8.2.5 4.8.4 4.7 9.8 4.2 4-.2 1.8-2.5-2.4-2.6-3.3 0-4-.4-4.2-2.3-.3-2 .1-2.2 3.7-2.2 3 0 4.1-.4 4.1-1.5s-1.1-1.5-4-1.5c-2.8 0-4-.4-4-1.4 0-1 1.4-1.6 4.3-1.8 5.9-.4 4.8-2.2-1.7-2.6l-5.4-.3-.3 3.8zM326.5 54.8c-1.2 1.2-.3 2.2 2 2.2 2.4 0 2.5.2 2.5 6.5 0 5.5.3 6.5 1.8 6.5s1.7-.9 1.5-6.5c-.2-6.3-.1-6.5 2.2-6.5 1.6 0 2.5-.6 2.5-1.5 0-1.3-1.2-1.5-6-1.4-3.3.1-6.2.4-6.5.7zM341.8 55.7c-.2 1 0 3.8.5 6.3.9 4.1 1.1 4.3 1.8 2 1.3-4.4 1-10-.5-10-.7 0-1.6.8-1.8 1.7zM341.6 68.7c-.3.8.2 1.3 1.4 1.3 1.1 0 2-.6 2-1.3 0-.8-.7-1.4-1.5-1.4s-1.6.6-1.9 1.4z"/></svg>