<svg xmlns="http://www.w3.org/2000/svg" version="1" viewBox="0 0 800 409"><path d="M28 1l41 29 60 42 25 17 39 28a217 217 0 0 1 45 35l-2-4-2-4 2 2 14 11c8 5 10 6 13 6l4-1-7-5-8-5a2362 2362 0 0 0-79-56l-13-9-15-10-27-19-50-35C38 3 34 0 31 0s-4 0-3 1zM332 1a97 97 0 0 0 2 35c1 1 0 3-1 4l-2 4 2-1c1-3 1-3 4 5 2 8 2 7-7 16l-9 7c-1 1-1 1-3-4l-3-5 8-8 7-9h-1l-16 16c-13 14-16 15-16 10l-1-2-1 2c2 3 2 6 1 7l-14 11a220 220 0 0 0 11-7l3-2 2 4c2 3 2 5 1 7v1h3l6 7-3-5c-2-4-2-4 0-6 2-4 13-13 14-13l3 5 6 8-4-8c-4-7-4-7 7-17l7-5c1-1 3 2 3 4l7 16a280 280 0 0 0 31 52c-15-22-28-46-30-53-1-2 0-4 2-7 4-5 4-5 0-1l-4 4-3-6c-3-8-4-12-1-14l2-3-2 1-3 2-4-11c0-3 1-4 6-9l7-6 2-2v-1c-1 0-9 6-12 10-3 3-4 3-5-3l-1-9-1-13c1-9 1-10-1-8zm-13 70c1 2 1 2-2 4l-9 8-6 5-2-2c-3-5-2-8 6-16l8-7 1 3 4 5zM363 7c-2 11-1 18 0 30 3 19 11 43 19 59l10 18 6 10 8 13c5 8 11 15 15 19 6 7 7 7 11 7h4l-8-9-13-15-10-16-7-12-7-14c-7-13-10-21-14-35l-5-13-1-7-2-13V9 0h-3c-3 0-3 0-3 7zM490 5c-5 6-11 22-8 22l1-3c0-3 0-3 6-1l5 2-4 6c-15 20-19 33-14 43 2 4 2 4 0-2-2-8 1-20 8-31l12-16 6 5 6 4-3 5-8 13-6 12-2 6 1-2 3-6 5-9c5-10 10-17 12-17l1-2c-1-2 1-4 17-21l11-12-3 2a508 508 0 0 1-24 26c-3 4-5 4-10-1l-15-8c-3-1-3-1-2-3 0-3 5-11 8-14l2-3-5 5z"/><path d="M508 2l3 2-7 8-7 8 8-7 8-8 6 4c4 4 4 4 2 1-3-4-11-10-14-10-1 0-1 1 1 2zM562 13a417 417 0 0 0-30 26l-10 6c-7 5-10 8-20 20-20 23-23 28-28 51l-3 13c-1 5 0 17 2 26l1 7 4 1c4 0 4 0 4-2l-4-12-1-6c-1-5-1-6 3-24 5-20 10-30 17-38l10-12c8-9 13-15 18-17l-4 9a484 484 0 0 0-30 81l-2 18c0 3 0 3 3 3h4v-7c2-15 9-41 19-65l7-17c2-6 3-6 5-2 1 3 13 14 15 14l5 3c3 2 5 3 7 2l4 1 19 5h5l9-2c9-1 12-2 12-4 0-3-4-3-10-2a215 215 0 0 1-13 1c-2 1-3 1-4-1 0-3 3-9 10-16l3-5-3 2-4 5-6 9-2 6-9-3-9-3 2-2 4-7 9-10 6-6 5 3 7 4 3 3c3 9 11 21 13 21l3-2c2-1 2-2-1-6-6-8-11-20-12-31-1-6-4-9-12-12-11-4-17-3-40 12l-12 6 9-14c5-3 36-14 43-14 9 0 26 5 29 9l3-1c3-2 3-2 4 0l-1 2c-3 1-8 7-8 9l-2 6c-2 7-2 8 0 14 2 7 7 12 12 14s18 1 22 0c5-3 10-7 12-11l2-4 5 11a84 84 0 0 1 11 37 145 145 0 0 1-1 32c-1 6-3 12-9 25-7 13-18 22-34 31-9 5-29 10-45 11-3 0-3 1-3 3v3h6c10 0 33-5 41-8 8-4 22-14 29-21s9-11 14-21c6-11 6-12 7-22a167 167 0 0 0 0-45c-1-12-9-31-17-42l-7-12c-3-7-5-10-9-12l-3-2-5-4c-6-2-6-2-8-1-2 2-2 2-8 0a113 113 0 0 0-29-8l-8-1-11-1c-5-1-5-1-5 3 0 2-1 3-6 4-6 2-6 2-5 0l4-4 7-6a244 244 0 0 1 22-16l-5-1h-6l-16 13zm79 38c9 10 10 10 7 16-4 8-14 12-25 9-7-2-10-11-8-20l2-7 2-3c2-2 3-2 8-2h6l8 7zm-77 3l7 3c2 2 0 6-4 11l-7 8-5 6c-2 2-3 2-6 0l-6-3-3-2 3-4 10-10 7-7c-2 0-13 11-18 16l-3 4-2-3-4-5c-1-3-1-3 4-5l11-7 8-5 8 3z"/><path d="M619 58c-3 4 0 7 5 4l3-3c-1-3-5-4-8-1zM425 13a97 97 0 0 0-39 14l7-3 13-5 11-3c4-1 10-2 28-1 25 0 24 0 30 2l5 2c1-1-8-5-12-6h-44zM67 19l12 8a155 155 0 0 1 14 10 359 359 0 0 1 48 32 5126 5126 0 0 1 5 2c-10-7-20-13-21-15a2679 2679 0 0 0-58-37zM193 21l-2 2 2-1c3-3 7-2 16 2 7 4 18 11 21 15 4 6 12 13 10 10l-10-12c-8-7-11-9-19-13-10-5-15-6-18-3zM311 31v8a360 360 0 0 0 3 12l-2-10V30v-2l-2 3zM336 84l-10 10-3 3 3-2c4-2 4-2 6 0l6 7 4 4c0-1-4-7-8-10l-3-4 5-5c12-12 12-14 0-3zM348 113c6 6 6 7 5 4l-1-1-1-1c0-2-3-5-6-6l3 4zM385 140l16 20a82 82 0 0 0-16-20zM236 176c0 2 0 2-2 2-1-1-1-1 0 0 2 2 2 10 1 9v1l1 20c0 16-1 18-2 18-1-1-1-1 0 0l2 4-1 3h334l-1-3 2-5v-1c-1 1-1-1-1-17v-16l2-1-1-1-1-7v-8H398l-163-1 1 3zm99 12c3 2 6 5 6 8 0 1-1 2-3 2l-3-1-2-4-3-1h-5l-1 1h-2l-1 1v3l-1 6-1 5v1c1-1 1 0 2 1 0 2 1 3 2 3l2 1c2 2 7 1 9-3 2-3 7-4 7 0 0 2-5 8-9 9-5 1-13 0-11-2l-1-1c-2 1-3-1-2-3 1-1 1-1 0 0-3 2-3 1-3-3l-1-3-1-4 1-7 2-2v-1c0-2 3-6 7-7h4c1-1 5 0 8 2zm202 1c2 1 5 6 4 7h-3c-2 1-3 0-5-2l-2-4-1-1v2l-3 1h-3l-1 1c-1-1-1 0-1 2l1 3v2h7l10 5c3 2 2 12-1 10l-1 1c1 1-3 4-8 4-4 1-9-1-8-2h-1l-4-3c-3-5-3-5 2-5l3 1 2 3h11l1-2-2-4-2-1h-3l-2-2h-1c-2 1-9-2-9-5l-1-4 1-5c1-2 2-2 3-1s1 1 0 0c-1-4 12-5 16-1zm-265 0l3 3c-1 0-1 1 0 0l2 6-3 5c-2 1-2 2-1 3 2 1 3 4 2 6v1l1 3c1 4 1 4-3 4l-2-1-1-1-1-5c1-2 0-4-1-5l-1-2h-10v1l-1 6c0 6 0 6-3 7h-3l1-16v-16c0-2 18-1 21 1zm35 1c0 2-1 3-2 3l-1-1h-7l-1-1-2 2c-5 0-5 0-5 3 1 3 1 3 5 4h8c3 0 4 0 3 2 0 2 0 3-3 3l-4-1c1-1 0-1 0 0-2 2-3 3-4 1l-4 1-1 1v7h9c8 0 9 1 10 2 0 2 0 2-1 1v1c1 1 0 2-12 2l-12-1 1-1v-3-10-7-1c-1 1-1 0-1-1s0-2 1-1v-1l-1-4v-3h24v3zm54-2h2c4-3 10 2 10 8 1 2-2 7-4 8v1c2 0 3 1 4 7l-1 4v1c3 2 2 3-2 3l-3-1v-6-1h-1v-3c-1-1-3-2-7-2h-6v4l-1 6c-1 1-1 1 0 0l2 1-4 2c-2 0-3-1-3-3l1-3v-3-1c-1 1-1 0-1-2 0-1 0-2 1-1v-1l-1-3h1v-1l-1-8v-7h8c5 0 7 0 6 1zm25 6v7 7c0 4 2 6 6 7l4 1c1 1 1 1 0 0v-2c2 0 3-3 3-10l1-4v-1l-1-7v-5h7v9l-1 7v9l-1 2v1l-1 2h-1c0 1-3 3-5 2l-2 1c0 1-7 0-10-2s-4-3-4-7c-2-7-1-10 0-10v-1c-1-2-2-10-1-13h3l3 1v6zm32-2v5 12l-2 1 1 1 1 4c0 4 0 4-3 5h-3v-14c0-10 0-14 1-13v-1c-2-3-1-5 3-5 2 0 2 1 2 5zm31-2c0 2 0 3-2 3l-2-1h-2-2l-1 1h-1l-2 1 1 1a702 702 0 0 0 0 24c1 1 1 1-2 1l-3-1v-20-1-3c0-3 0-3-4-3h-5l-1-4 13-1h13v3zm28 0c0 3-1 4-4 2h-1l-5 1c-6-1-7 0-7 3s3 5 4 4c2-1 10 0 12 1v3l-8 1-9 1 1 1v5 1l9 1c9 0 10 0 9 3v2l-11 1c-10 0-12-1-13-2v-3-2l-1-1 1-13v-12h24l-1 3zm20-2h1c1-1 5-2 5 0h1c6 0 9 9 4 14-2 2-2 3 0 4l2 6 1 7-3 1-3-1-1-2v-1-1l-1-2c1-5-1-6-7-6h-6v12h-6v-15l1-16 7-1c4 0 6 0 5 1zm56 28c0 3 0 4-3 4s-3 0-3-3v-2c-3 0 1-2 3-2 3 0 3 0 3 3z"/><path d="M256 192l1 6c0 3 0 4 2 4h9l1-1 1-4-1-3v-2h-5c0 1-6 1-8-1v1zM360 192l-3 1c-3-1-3 0-4 2l-1 3v2c2 1 3 2 8 2h5l1 1 1-5c0-3 0-4-2-5h-3l-1-1h-1zM496 192h-3c-2 0-2 0-2 5v5h5c5 0 6-1 8-3l1-2-1-1c1-1-2-3-4-3l-3-1h-1zM346 242l-7 1-6 1 6 4c10 4 12 4 15 0l2-4-4-1-4 1h-1c-2 0-2-1-1-2l1-1-1 1zM511 242l-3 1c-2 0-3 0-4 8a146 146 0 0 0-4 26l-2 14a116 116 0 0 1-3 21l-1 6-1 10a244 244 0 0 1-6 45c-2 5-2 5-11 7l-7 1c-6 1-11-1-21-8-28-19-30-20-40-21-4 0-5 0-7 3-3 4-6 12-6 16v2h-9l-12-2-25-1h-10l-1-17c0-20-1-27-7-40-7-15-23-28-25-21l-1 3 1-1 1-2c1-2 6 1 12 7 10 9 18 28 18 44v28l-3 1c-9 3-12 5-13 7-6 9-8 11-10 17l-3 10c-1 3-1 3 2 3 4 0 4-1 6-6 1-6 10-20 14-23 4-2 6-2 5 1v3l-1 4-1 4 3-8 3-8c2-1 19 0 34 2l13 1c4 0 6 1 7 3s1 2-5 2l-15 1c-14 3-22 5-28 10-4 3-4 4-1 9l3 4 4 1c4 0 4 0 4-2l-2-6v-4l8-2a142 142 0 0 1 17-3l9-1 6-1v19h7l-1-8 1-11 17-2 35-2c2 0 5 0 9 2 5 2 7 2 9 1l7-2a224 224 0 0 1 68-2c3 2 3 3 5 8 2 4 2 4 4 3l6-1 3-1 2-6c0-4 2-11 4-15l7-25 7-25c9-26 12-36 19-63l3-12-2-2c-3-3-25-7-23-4l-4 1h-6-8c-11 0-5 2 12 4l6 1 9 1 8 1-2 11-6 20a128 128 0 0 1-7 23 271 271 0 0 1-12 36l-5 18a164 164 0 0 0-7 31l-4-5c-5-7-7-8-28-8l-24 1c-6 1-11 0-9-2l3-20 1-9a397 397 0 0 0 5-35l2-16 1-12 3-15 2-14 3-13-2 1zm-90 120l20 15c0 1-2 1-11-1a140 140 0 0 0-29-2l4-13c2-3 11-2 16 1zm-3 20h-18l9-1 9 1zM296 243l-85 114-29 38-9 12c-2 1-1 2 2 2a29529 29529 0 0 0 126-164c1-1 0-2-2-2h-3zM258 267l-42 58-13 17-16 23a8316 8316 0 0 1-32 43l3 1a43111 43111 0 0 0 121-166c-3 0-6 3-21 24z"/><path d="M445 256l-6 16c-1 4-1 21 1 28l1 13c1 10 2 15 4 18l1 5 8 20 12 21c1 1 4-2 4-4l-4-10-6-10-9-26-4-18-1-15c-2-9-2-17 1-24l9-26-3-1h-4l-4 13zM347 254v3c1 1 1 1 2-1v-3l-2 1zM354 264l3 17v15c1 3 0 9-1 13a209 209 0 0 0-3 32c1-1 2-3 3-11l1-9a194 194 0 0 0 2-18v-12l-1-12c-1-9-3-18-5-22-1-1-1 2 1 6zM288 289a292 292 0 0 0-21 36l-7 11-9 11-2 2 4 4 11 8 10 8c2 2 2 2 1 4l-6 12 5-7 3-6 3 3c8 9 10 12 16 23l6 11c3 0-14-28-19-33-4-4-4-5-2-9 2-6 1-6-2-1l-2 4-10-8-12-10-2-2 3-5a537 537 0 0 1 23-39 201 201 0 0 1 15-25l-6 8z"/><path d="M304 321a222 222 0 0 1-7 13 172 172 0 0 1-13 26l4-5c4-6 5-9 10-21l7-12 4-7-5 6zM0 350c0 2 3 5 24 22l28 22c17 15 18 15 21 15s3 0 2-1a622 622 0 0 0-26-22l-20-15c-8-8-16-14-18-15l-6-5-4-4-1 3zM248 355a267 267 0 0 0-17 32c-5 9-11 21-10 22l1-1a328 328 0 0 1 19-36l8-16c2-3 1-4-1-1zM559 402l-12 1-13 2-16 2c-12 0-21 1-22 2a446 446 0 0 0 67-2c5-2 6-4 3-6l-2-1-5 2zM437 407c-2 1-1 2 2 2s3 0 1-1c-2-2-2-2-3-1z"/></svg>