<svg version="1.0" xmlns="http://www.w3.org/2000/svg" viewBox="0 0 1500 1355"><path d="M772 58a209 209 0 00-51 50l-11 17c-7 8-9 12-18 33-9 22-10 25-11 39l-2 23c-2 19-2 36 1 51l3 21 5 22 8 24c4 17 17 47 26 61l11 19 17 30 17 27c6 9 11 15 24 28l21 23c11 13 33 29 49 37 7 3 8 3 20 4l12 1-7 9a397 397 0 00-58 124l-6 19v19c0 16 0 21 2 33l3 23c0 13 2 22 10 46a198 198 0 0027 60c8 15 8 15 11 15s5-3 5-8c1-4-5-15-13-29l-7-11-4-11c-3-9-13-37-15-47l-3-22c0-10-2-21-3-27-2-8-2-15-2-23 0-11 0-12 4-24l13-36a348 348 0 0152-101l12-16v25l4 1c10 3 9 3 14-3l4-4 11 7c15 10 26 15 38 18 5 0 22 5 38 9l30 7h55l20-3c41-8 47-10 74-29 11-8 16-12 28-24l14-14 11-22c8-16 11-24 12-29 2-13 3-29 3-53 0-36-2-55-8-74-5-14-18-40-25-50-8-11-9-13-13-24-5-12-8-17-12-20l-15-8c-17-11-15-10-20-6l-4 3-4-2c-16-8-35-13-79-18-29-4-29-4-28 3v5l-23 6 14-15 12-9c10-9 48-37 58-43a603 603 0 01175-64c2-3 3-8 2-11l-1-3-7 2-15 4a645 645 0 00-89 27c-16 5-57 25-72 34a973 973 0 00-117 95c-11 6-32 20-37 25-4 5-29 33-41 49-19 23-23 32-35 81-4 17-4 19-4 32 0 15 0 20 8 48l6 20 6 8c3 5 4 9 1 12-1 2-2 2-5 1s-14 0-16 2a154 154 0 01-60-38l-19-21c-16-16-18-19-31-39a715 715 0 00-27-45l-11-20c-10-17-22-44-27-63l-8-26c-3-8-5-13-5-20a525 525 0 00-5-46l2-20c2-25 3-30 11-51 8-22 13-30 19-38 3-3 9-11 12-17 6-9 9-13 21-24 8-8 16-15 20-17 10-6 14-12 12-17s-3-5-15 3zm334 205c18 3 27 6 35 12l7 5 4-3 5-4 1 2 2 3-4 4c-6 3-10 7-11 10l-3 11-3 11c-4 5-3 10 0 22 4 11 4 12 10 17 10 9 14 11 32 10 15 0 16 0 22-3 14-6 22-15 24-23l1-4a167 167 0 0128 75l2 18c2 11 2 26 1 37l-2 20c-2 16-3 17-17 45-9 18-9 19-18 28-14 14-36 30-54 38a272 272 0 01-115 14l-64-15c-14-3-32-14-53-30-10-7-10-8-10-12s0-4 6-8c9-4 15-10 15-13l-3-5-3-3-7 5-8 5 1-8 2-16c0-11 5-37 10-54l6-21c4-14 9-29 21-57a897 897 0 0015-40c1-1 5 4 7 8l7 9 19 16 15 8c3 2 4 3 8 2 5 0 7 0 12 2l19 6c12 3 14 3 19 2l13-2c12 0 24-3 27-4 3-2 4-5 1-8-1-2-3-2-9-2l-10 1-13 2-13 2c-1 0-2 0-3-3l-1-5 19-27c5-5 6-8 4-8a173 173 0 00-25 35l-3 5-14-3-16-5-4-1 4-3 8-12 6-9 11-12 11-12c1 0 9 4 15 9l10 5c3 2 3 3 6 10 3 10 8 19 15 27s9 9 14 4l3-3-5-7c-13-16-20-35-24-57 0-5-2-11-3-13-4-7-23-16-38-17h-7l-15 7a565 565 0 00-56 33c-1-1 11-22 15-26 5-5 15-9 52-21 25-9 29-9 44-6zm80 28c3 1 8 5 17 15 16 15 16 15 12 26-3 8-7 13-17 17-6 3-7 3-18 3-17-1-23-5-27-16-4-12-4-11 3-34 1-3 2-7 4-9 4-3 4-3 13-3l13 1zm-204 20c-9 13-15 26-33 71-13 33-13 32-18 54l-5 17c-2 5-8 36-9 49-1 17-3 33-4 33-4-1-9-17-16-47-5-19-5-22 2-50 9-41 16-58 29-74l19-23c14-17 26-30 33-35l6-3-4 8zm66-5l14 5c8 3 9 3 9 6 2 5 0 8-9 18l-12 15c-5 7-11 14-14 14-4 0-12-4-23-11-2-1 11-16 31-35 5-4 6-6 5-6l-7 4-10 10-11 12-9 10c-2 2-2 2-4 0-4-4-8-9-9-14l-2-5 10-5a234 234 0 0034-21l7 3z"/><path d="M1164 313c-3 2-7 6-7 8l3 4 3 3 4-2c9-4 10-8 5-12-3-2-3-2-8-1zM900 134l-12 2-4 2h3l12-1c8-2 29-2 36-1l18 2c17 1 22 3 37 9l17 8c7 3 8 5 1 10a573 573 0 001 2l7-5 4 1 14 9 10 6-3 3-12 8c-12 9-17 14-26 25l-22 24c-8 8-17 17-19 21-9 11-9 11-18 4l-9-7-23-11c-5-1-5-1-5-5 2-6 8-16 17-27l10-13h3c2 1 2 1 2-3l-1-4 12-12c13-12 17-16 25-18 3-2 5-3 4-4 0-1-1-1-4 1-7 3-14 8-27 20l-13 13-9-6c-16-9-36-19-46-21a203 203 0 00-62-3c0 2 3 2 21 2 21 0 34 1 45 5 11 3 38 17 47 24l2 2-2 5-11 13c-7 8-9 11-12 20-5 11-8 24-5 24 1 0 2-2 2-8 0-4 0-4 2-4a576 576 0 0018 8l-11 16c-15 20-18 27-22 38-5 14-6 22-4 29 1 6 5 16 7 15l-3-8c-3-9-3-17 0-29 4-12 10-25 18-36l13-17c6-9 5-9 16 0l11 8 3 2-4 5c-6 6-8 8-16 25l-11 21c-5 7-11 24-7 19l4-9 7-14 10-18c8-17 15-26 20-26 2 0 2 0 1-3v-5a563 563 0 0145-49c11-13 15-17 25-24l14-11 4-3 3 3c7 10 11 14 14 16 6 4 6 2-1-5l-11-11c-2-3-7-8-13-11l-18-14a241 241 0 0127-20c-2-1-12 5-20 12-7 5-9 6-11 6l-18-8a90 90 0 00-39-12l-19-2c-11-2-30-2-39 0z"/><path d="M1111 143c-10 1-17 3-23 6-9 5-29 17-33 21-4 5-3 5 6-2 13-8 29-18 33-19l9-2 18-5-1-1-9 2zM0 168v6l24 16 138 97 189 132 76 53 9 12c10 12 14 15 7 4l-5-7a4319 4319 0 01140 99l-72 98a136569 136569 0 00-270 370c-2 0-16-10-27-19l-90-73A17557 17557 0 010 859v11l48 39a3088 3088 0 00222 177c23 22 37 30 55 32h6l5-5 6-5 2 2c6 7 15 23 20 32l12 23c8 16 14 30 21 54 15 46 17 53 20 80 2 16 2 20-1 40v16l5-41a409 409 0 00-30-124l-4-12-15-26c-19-37-35-61-47-72l-18-20c-9-13-13-17-19-21l-3-2 77-101a54496 54496 0 01214-284l4-4 14 6 18 8c6 1 10 3 26 12 8 4 11 5 15 5s5 0 8-4c6-9 6-10 4-18-1-5-2-7-7-13l-18-16-19-15c-6-5-6-5-10-5l-4 1 3-3 7-13-7-2c-8-3-18-7-21-11l-8-8a20487 20487 0 01-201-144A57932 57932 0 005 166l-5-4v6zm604 431a330 330 0 01-33 43 11273 11273 0 01-246 328 13222 13222 0 01-71 90 133 133 0 00-10-7 29112 29112 0 01311-427l27-38 11 5 11 6zm16 30l25 20 7 6v13l-6-3c-13-8-28-15-37-18-10-3-14-5-18-10l-3-3 4-5 7-9 3-4 18 13zm-326 439l13 14 10 10c7 5 11 10 11 12l-2 2c-3 0-18-6-24-11-8-5-34-30-34-33 0-1 2-5 8-12l3-4 3 6 12 16zM632 178c-3 5-9 23-12 35-2 11-1 25 3 44l3 19c0 3 0 4-6 11-8 10-58 61-59 61-3 0-5-4-5-7l-1-4-2 1 2 6 1 7c0 3 2 1-31 27a333 333 0 00-55 50c0 2 9-7 20-19 8-7 16-15 27-23l27-21 11-8 4 7c4 9 4 11 1 15-3 5-3 5 0 3l4-3 7 7c5 8 8 10 4 4-9-14-9-14 1-24 6-7 21-18 23-18l5 8 11 17c1 0-2-6-7-13l-7-15 17-16 11-10 6-5 4 9a676 676 0 0035 75l18 29c12 20 24 37 25 37l-14-23c-25-40-28-44-34-57-6-10-17-34-17-36l6-9 5-8-11 11-2 3-2-5-9-25-1-5 4-3c7-7 8-7 6-7l-6 4-6 2-5-13-3-13 10-10 14-11c4-2 7-4 7-6 0-3-10 4-19 14l-11 9-2-10a128 128 0 017-87c3-6 2-6-2-1zm-3 115l4 13 2 4-4 5-13 11-15 14-14 12-14 12c-10 10-9 10-13 2l-4-10 15-17 15-15 3 7 5 9c3 4 2 0-1-7-5-10-5-10 1-16l9-10 10-10 11-13 3 9zM941 203l8 6 8 7-11 11c-9 9-16 18-15 19l12-12 15-15 4-3 8 7 9 8c2 0-6-9-12-14-5-4-26-16-26-14zM794 232c-9 1-40 10-53 16-9 3-20 9-18 10l14-6 21-8 18-6 11-3 44-1h44l12 5 13 4c2-1-10-7-17-9-6-2-8-2-44-2h-45zM123 242l43 29a2817 2817 0 01173 121l5 2-5-4-77-56a3366 3366 0 00-139-92zM363 244c-3 1-6 5-6 8l4-3c3-3 4-4 9-3 7 0 13 2 24 7 16 9 27 17 46 38l13 14c1-1-11-14-23-27-15-15-24-21-40-29-12-6-22-7-28-5z"/><path d="M583 263c-3 6-3 9-2 18a1010 1010 0 018 36l-1-11c-6-35-5-34-4-41 2-7 1-8-1-2zM636 361a369 369 0 01-32 28l8-4 6-4 7 8a137 137 0 0116 20l-3-7c-1-4-5-8-11-14l-8-8 10-9c10-11 18-19 16-19l-9 9zM649 416l9 11c5 6 6 6 2 0-5-8-8-12-12-14l-4-2 5 5zM721 469l1 4c3 4 22 28 26 31l3 3-4-5-26-33zM955 642c-9 24-15 47-16 68l-4 18-3 25c-1 13-2 25-6 46l-3 23c-2 31-11 91-14 94l-33 7c-7 1-7 1-14-2-10-4-21-11-41-26-29-21-38-25-55-26l-10-1-4 4c-5 5-8 12-11 25l-3 11h-11l-41-5-30-1h-22v-33l-1-33-3-12c-4-16-8-26-15-38-7-11-11-16-24-27-7-5-9-7-13-7-5-1-5-1-7 8 0 3 0 3 2-2l3-5 6 3c23 13 39 39 47 75 2 8 2 13 2 41l1 32-10 3c-13 5-18 8-24 15-9 13-15 24-18 34l-6 18-2 8-3-4-12-24c-9-18-11-20-22-35l-13-15 4-8 3-9-5 7-5 7-27-21-18-15 26-45 19-32a723 723 0 01-1-3 498 498 0 01-50 76c-2 0-1 3 1 5l6 3 12 10 20 16 11 8-5 9c-6 9-10 18-10 19l14-20 3-5 21 25c4 4 26 48 29 55 1 4-1 15-5 30-4 14-5 18-7 35-2 14-4 21-8 31-2 7-2 9-3 31l-2 34c-1 12-1 40 2 53l4 16c3 5 4 9 5 17 2 17 9 32 20 44l4 4 3-3c4-4 4-7-3-18-9-14-11-18-12-31l-3-18c-8-23-10-37-8-53 2-7 2-16 2-32 0-32 3-43 12-53 7-9 9-23 8-48 0-15 0-20 8-48a117 117 0 0127-53c4-3 14-7 15-6l-3 12c-3 12-3 15-1 11l4-12 6-15c3-2 32-1 56 2l33 3c8 0 10 1 13 7 1 2-1 3-14 3s-41 5-55 9c-11 3-20 8-25 13-3 4-3 4-1 8 0 2 2 4 3 5l7 12 8 14c3 4 3 4 13 6l11 1-1 10 1 16 2 24a198 198 0 007 45c3 22 6 31 10 44a432 432 0 0035 87c1 1 2 1 4-2 1-1 3-5 3-9 3-6 2-19 0-30l-2-23c-1-11-2-23-5-38a461 461 0 01-8-66l-3-38v-17h13v12a439 439 0 006 65c1 14 3 26 9 57 6 27 7 31 7 42s0 14 3 28l9 29 1-2 2-1c2 2 23 59 23 63 0 2 14 29 24 45l11 17h13a404 404 0 00-19-39 513 513 0 01-62-189 556 556 0 01-15-100l-1-20v-7l4-1 26-2a271 271 0 0034-3h3v17l1 26 2 30c0 19 0 24 2 35l4 27 3 26 3 25c0 12 0 13 4 19l5 10c2 4 4 5 10 5h3v-4l2-15c2-10 2-13 2-60l-1-55-2-47v-42h7a501 501 0 0070-6l18-1 29-2h19v2l-3 20-2 26-2 37c0 26 0 28-3 36-2 7-2 8-3 41a299 299 0 005 73c2 18 4 25 7 33 3 5 10 12 13 12l10-5 9-4-1-4c-2-15-2-20-1-31 3-36 3-40 2-52-1-11-1-12 2-22 4-19 5-27 5-51l1-29 2-30c1-24 3-47 5-55 1-4 2-5 5-6l15-6-2-4c-3-5-4-5-15-1l-22 3-26 3c-8 2-19 2-34 3a464 464 0 00-43 3l-30 3-41 3h-17l-5-4-8-6c-3-1-3-1-5 3l-2 7-3 3-40 3h-20l-1-4c-2-8-3-16-3-28 1-12 1-12 3-15 3-2 3-2 28-2 23 0 33-1 61-4 14-2 15-2 24 2l11 4c2 0 7-1 10-3 12-6 26-8 48-8l24-2c15-2 53-1 60 1 6 3 10 7 14 16l3 8c1 1 2 1 5-1l10-1h7l1-8c1-11 4-23 13-51a874 874 0 0017-58c7-19 10-28 13-41l8-22 7-24 6-24c5-13 12-42 12-46s-4-8-8-10l-23-3a1296 1296 0 01-135-22h-11l-1 2zm29 12a1254 1254 0 00134 21l3 1-2 5c-1 3-3 9-3 14l-5 18-7 25-8 24-7 20-4 17a3174 3174 0 00-23 73 347 347 0 00-17 65l-6-7-9-11c-6-4-15-5-42-6-22 0-27 0-38 2-13 2-20 2-25 0-2-2-3-2-1-10a592 592 0 0014-107c4-20 6-35 6-44l2-14 4-24c3-26 7-42 15-63 1-2 1-2 8-1l11 2zM778 882c5 1 16 9 34 22l14 12h-6l-31-4-22-2-16-1 7-22 2-6 8 1h11zm4 42l-17 1c-16 0-18 0-16-2a133 133 0 0133 1zm-46 19l2 41 2 5h-4l-8-4-4-3-3 3c-8 5-15 5-37 0-12-3-13-3-16-7-4-4-6-10-7-19v-6l11-3c15-4 27-7 38-8l20-2c6 0 6 0 6 3zm295 43l-1 18-2 26-1 26-2 33c0 27 0 32-6 50l-5 22c-1 12-1 31 1 41v13l-2 19v15l-3-5c-4-8-5-12-6-26a721 721 0 00-5-55l2-29 2-29 1-32 1-33 2-19 2-18 1-15 1-8c2-2 12-4 16-4h4v10zm-186 57c0 39 0 56 2 66 2 18 2 69 0 69a328 328 0 00-5-32c-2-12-3-19-3-32 0-18-1-25-4-32-2-3-2-6-3-27a398 398 0 00-3-49l1-11 4-2 8-2h3v52zm-129-22a616 616 0 008 91c4 28 7 60 6 60-2 0-10-24-17-54a1264 1264 0 00-11-45l-4-15-1-20c0-9 0-16-2-20l-1-6 3-4c5-8 5-8 12-8h7v21zm-140 26c-1 15-2 19-6 22l-2 2v-4a302 302 0 017-40l1-5 1 6v19zM651 684c-3 3-2 8 1 6l3-7c-1-2-2-1-4 1z"/><path d="M658 689l5 13c4 14 5 24 5 31-1 4 0 11 1 20l2 14-2 12a601 601 0 00-4 51l7-53v-24l-2-20c0-10 0-15-3-23-2-11-6-20-8-22l-1 1zM577 800l-4 5-8 13c-6 8-9 15-12 23l-14 28c-4 5-7 12-7 13 1 3 19-29 24-42 3-8 7-15 15-28 10-13 9-13 8-13l-2 1zM463 878l-16 28-15 29-31 62c1 0 10-15 19-33a585 585 0 0129-55 497 497 0 0114-31zM420 977l11 10c5 4 14 11 18 16 10 10 29 33 37 44 11 18 23 49 27 76v42l-2 16c0 7 0 9-4 18l-8 24c1 0 6-9 8-17a128 128 0 016-15c2-6 3-28 3-45a186 186 0 00-20-85 295 295 0 00-76-84z"/></svg>