<svg xmlns="http://www.w3.org/2000/svg" viewBox="0 0 544.16998 544.8642"><g stroke="#000"><path fill="#019833" stroke-width=".94571567" d="M260.50744 170.69515L105.98412 340.79094 259.8636 510.178l154.52331-170.09579-153.87947-169.38706z" transform="matrix(1.53239 0 0 1.39397 -124.89313 -202.125276)"/><path fill="#66fe98" stroke-width=".94571567" d="M259.8636 171.40389v-14.88338L91.819492 341.49967h14.164628L259.8636 171.40389z" transform="matrix(1.53239 0 0 1.39397 -124.89313 -202.125276)"/><path fill="#45fe02" stroke-width=".94571567" d="M259.47729 171.40389v-14.88338l168.0441 184.97916h-14.16463L259.47729 171.40389z" transform="matrix(1.53239 0 0 1.39397 -124.89313 -202.125276)"/><path fill="#017d17" stroke-width=".94571567" d="M259.8636 511.17022v14.88338L91.819492 341.07444h14.164628L259.8636 511.17022z" transform="matrix(1.53239 0 0 1.39397 -124.89313 -202.125276)"/><path fill="none" stroke-width="18.91431427" d="M122.99448 175.30643h108.35396l6.60139 7.26665v22.30116l-5.23559 7.01608h-11.83699v110.75406l101.98019-110.75406H306.0125l-5.9185-7.01608v-23.55403l5.46323-5.51264h109.71976l5.46322 6.01379v22.05058L172.61878 484.01452h-28.22666l-8.17033-5.19252V210.88803h-13.68257l-5.00795-5.51264v-23.55403l5.46321-6.51493z" transform="matrix(1.53239 0 0 1.39397 -124.89313 -202.125276)"/><path fill="#005d04" stroke-width=".94571567" d="M259.47729 511.17022v14.88338l168.0441-184.97916h-14.16463L259.47729 511.17022z" transform="matrix(1.53239 0 0 1.39397 -124.89313 -202.125276)"/><path fill="none" stroke-width="5.67429399" d="M259.41018 155.14848L90.734026 340.82339 258.70737 525.72467l168.67616-185.67492-167.97335-184.90127z" transform="matrix(1.53239 0 0 1.39397 -124.89313 -202.125276)"/><path fill="#fefefe" stroke-width=".94571567" d="M232.50008 186.64163l6.11655-3.54366-6.27751-6.91014H123.04607l-5.55319 6.11281v23.1224l6.15679 6.77725 2.93756-6.77725-3.86308-4.2524v-16.30085l2.89731-2.83492H229.9247l2.57538 4.60676z" transform="matrix(1.53239 0 0 1.39397 -124.89313 -202.125276)"/><path fill="none" d="M828.9375 369.5l-4.28125 4.28125V389.5l3.75 3.75h19.8125v15.1875l-131.0625 132.84375V393.4375h21.78125l4.46875-4.46875V373.0625l-4.125-3.1875h-114.625l-3.75 3.75v16.25l3.8125 3.8125h19.9375v272.25l3.75 3.75h22.65625l274.65625-283.40625v-12.5L941.4375 369.5h-112.5z" transform="matrix(1.38127 0 0 1.38313 -795.19468691 -460.43595253)"/><path fill="#fefefe" stroke-width=".94571567" d="M143.48158 204.87424v270.62073l3.18688 4.0092-2.49916 5.24301-7.06148-7.74876v-265.1081z" transform="matrix(1.53239 0 0 1.39397 -124.89313 -202.125276)"/><path fill="gray" stroke-width=".94571567" d="M125.82451 204.87424l-1.82108 6.51494h13.2028l7.2843-6.51494h-18.66602z" transform="matrix(1.53239 0 0 1.39397 -124.89313 -202.125276)"/><path fill="#fefefe" stroke-width=".94571567" d="M307.18636 212.19144l2.89731-6.55577-4.18501-4.2524v-14.52901l4.82886-5.31551H411.4896l3.86308 5.66987 5.4727-4.2524-5.63366-6.20141H306.86443l-5.39221 5.93564v23.29957l5.59342 5.80276m-87.54309 111.87785l-10.52288 28.10566 118.7898-131.1155v-15.59211L219.52255 323.67063z" transform="matrix(1.53239 0 0 1.39397 -124.89313 -202.125276)"/><path fill="gray" stroke-width=".94571567" d="M232.25896 185.83056l5.2356-3.75862v22.8023l-6.03231 6.64023h-11.72317v112.38277l-10.69882 27.81381V204.87424h19.57656l3.64214-3.25747v-15.78621z" transform="matrix(1.53239 0 0 1.39397 -124.89313 -202.125276)"/><path fill="#ccc" d="M828.9375 369.5l-4.28125 4.28125V389.5l3.75 3.75h19.8125v15.1875l-131.0625 132.84375V393.4375h21.78125l4.46875-4.46875V373.0625l-4.125-3.1875h-114.625l-3.75 3.75v16.25l3.8125 3.8125h19.9375v272.25l3.75 3.75h22.65625l274.65625-283.40625v-12.5L941.4375 369.5h-112.5z" transform="matrix(1.38127 0 0 1.38313 -795.19468691 -460.43595253)"/><path fill="gray" stroke-width=".94571567" d="M415.35268 185.9329l5.49849-3.49448v21.92152l-249.39111 280.5213H144.9826l2.52966-5.5331h20.28119l247.23731-281.01241zM327.29631 205.25009l-5.57703 6.38966h-14.56861l3.41452-6.38966h16.73112z" transform="matrix(1.53239 0 0 1.39397 -124.89313 -202.125276)"/><g fill="#ccc" stroke-miterlimit="10"><path stroke-width="8" d="M399.78125 560a1.2330102 1.2330102 0 0 0-.5625.28125l-5.3125 4.5625a1.2330102 1.2330102 0 0 0-.34375.53125L388.25 580.25a1.2330102 1.2330102 0 0 0 .28125 1.28125l4.0625 4.0625a1.2330102 1.2330102 0 0 0 .875.34375H409.875a1.2330102 1.2330102 0 0 0 .875-.34375l4.28125-4.3125a1.2330102 1.2330102 0 0 0 .3125-.53125l4.5625-15.65625a1.2330102 1.2330102 0 0 0-.3125-1.21875l-3.53125-3.53125a1.2330102 1.2330102 0 0 0-.875-.34375h-15.15625a1.2330102 1.2330102 0 0 0-.25 0zm-30.0625 41.9375a1.2330102 1.2330102 0 0 0-.9375.90625l-2.03125 8.0625a1.2330102 1.2330102 0 0 0 1.1875 1.53125h9.65625l-23.9375 68.34375a1.2330102 1.2330102 0 0 0 1.15625 1.625h34.84375a1.2330102 1.2330102 0 0 0 1.1875-.84375l2.28125-7.34375a1.2330102 1.2330102 0 0 0-1.1875-1.59375h-7.875l23.6875-69.0625a1.2330102 1.2330102 0 0 0-1.15625-1.625h-36.625a1.2330102 1.2330102 0 0 0-.25 0zm110.875.25a1.2330102 1.2330102 0 0 0-.6875.40625l-7.25 8.1875H461.125l-7.6875-7.96875a1.2330102 1.2330102 0 0 0-.875-.375h-27.53125a1.2330102 1.2330102 0 0 0-1.15625.8125l-2.53125 7.5625a1.2330102 1.2330102 0 0 0 1.15625 1.625h7.375l-22.9375 67.59375a1.2330102 1.2330102 0 0 0 1.15625 1.625h29.3125a1.2330102 1.2330102 0 0 0 1.15625-.8125l2.25-6.59375a1.2330102 1.2330102 0 0 0-1.15625-1.625h-5.125l14.625-46.03125H475.625l-16.6875 53.46875a1.2330102 1.2330102 0 0 0 1.1875 1.59375h28.28125a1.2330102 1.2330102 0 0 0 1.125-.75l2.53125-6.0625a1.2330102 1.2330102 0 0 0-1.125-1.6875h-5.125l14.875-46.8125h25.1875l-16.9375 53.71875a1.2330102 1.2330102 0 0 0 1.1875 1.59375h31.0625a1.2330102 1.2330102 0 0 0 1.15625-.78125l2.53125-6.59375a1.2330102 1.2330102 0 0 0-1.15625-1.65625h-6.15625l18.71875-60.78125a1.2330102 1.2330102 0 0 0-.1875-1.125l-5.8125-7.8125a1.2330102 1.2330102 0 0 0-1-.46875H527.0625a1.2330102 1.2330102 0 0 0-.90625.375l-7 7.6875h-12.25l-7.25-7.9375a1.2330102 1.2330102 0 0 0-.90625-.375h-17.90625a1.2330102 1.2330102 0 0 0-.25 0z" transform="matrix(1.38127 0 0 1.38313 -266.68543297 -470.09859791)"/><path d="M400.03125 561.21875l-5.3125 4.5625-5.3125 14.875 4.0625 4.0625H409.875l4.28125-4.3125 4.5625-15.65625-3.53125-3.53125h-15.15625zm-30.0625 41.9375l-2.03125 8.0625h11.375l-24.5 69.96875h34.84375l2.28125-7.34375h-9.59375l24.25-70.6875h-36.625zm110.875.25L473.25 612h-12.625l-8.0625-8.34375h-27.53125l-2.53125 7.5625h9.09375l-23.5 69.21875h29.3125l2.25-6.59375h-6.8125L448.25 625.375h29.0625l-17.1875 55.0625h28.28125l2.53125-6.0625h-6.8125l15.65625-49.25h27.78125l-17.4375 55.3125h31.0625l2.53125-6.59375H535.875l19.21875-62.375-5.8125-7.8125H527.0625l-7.34375 8.0625h-13.375l-7.59375-8.3125h-17.90625z" transform="matrix(1.38127 0 0 1.38313 -266.68543297 -470.09859791)"/></g></g></svg>
