<svg viewBox="9.2 57.4 480.4 212.5" xmlns="http://www.w3.org/2000/svg"><defs><linearGradient gradientUnits="userSpaceOnUse" x1="250.4" y1="58.9" x2="250.4" y2="221.2" id="a"><stop offset="0" stop-color="#ababab"/><stop offset=".2" stop-color="#888"/><stop offset=".4" stop-color="#595959"/><stop offset=".5" stop-color="#545454"/><stop offset=".5" stop-color="#111"/><stop offset="1" stop-color="#111"/></linearGradient></defs><path d="m12.6 140 .4 80.7 106.3-.3c42.8-5.3 64.5-32.3 65-81-1.7-50.7-23.4-77.4-65.2-80L13.3 59l-.3 43.8 105.8-.3c6.3-.2 9.8 5.2 10.4 16.2l-.4 42.6c-.6 10.5-3.8 15.7-9.7 15.7l-56 .4v-37.7l-50.5.4Zm179.8-.5c-.7-49.2 20.7-76 64-80.4l100.7.2 39.7 43.7 38.6-44.1 52.6.3.1 21.4-57.3 58.8 57 60.3.3 21.5-52.6-.1-39-43.6-39.3 43.6-101.2-.3c-42.5-4-63.7-31-63.6-81.3Zm64 38 70.4-.2 36.3-37.5-35.6-37.6-71.3.3c-6.6.1-9.7 7.2-9.9 16.4l72.3-.3v43.1l-72 .2c-.3 9.4 2.9 14.6 9.7 15.6Z" vector-effect="non-scaling-stroke" fill="url(#a)"/><path d="m64.7 175.9 54.5-.4c2.5.1 4-.9 5.5-3.2a24 24 0 0 0 2.6-11l.4-42.5a24 24 0 0 0-2.9-11.6c-1.5-2.4-3.2-3.4-6-3.2l-107.3.3.3-46.8h1.5l105.9.4c21.1 1.3 37.6 8.9 48.7 22.5 11 13.6 17 33.5 17.9 59-.3 24.6-6 44-17 57.7-11 13.8-27.6 22-49.3 24.8l-108 .3-.4-83.6 53.5-.4ZM14 141.5l.4 77.7 104.7-.3c21.1-2.6 36.7-10.4 47.3-23.6 10.6-13.3 16-31.7 16.3-55.8-.8-25.2-6.5-44-17.2-57.2-10.7-13.1-26-20.2-46.6-21.4l-104.3-.4-.2 40.8 104.3-.3a10 10 0 0 1 8.6 4.6c1.8 2.9 3 7.4 3.3 13l-.4 42.7c-.3 5.4-1.4 9.8-3 12.6a9.6 9.6 0 0 1-8.2 4.6l-56 .4h-1.4v-37.7Zm176.8-2c-.3-24.8 5-44.3 15.8-58 10.9-13.6 27.6-21.7 49.6-24l101.4.3 39 43 38-43.4 54.8.3.1 23.5-56.8 58.3 56.5 59.6.3 23.6-54.8-.1-38.3-42.9-38.7 43h-.6l-101.4-.4c-21.5-2-38-10-48.8-23.9-10.7-13.7-16.1-33.6-16.1-58.9Zm18.5 57c10.4 13.4 25.7 21 46.6 22.8l100.5.3 40-44.4 39.7 44.4h50.4l-.3-19.3-57.6-60.9 58-59.5-.2-19.2-50.4-.3-39.3 44.9-40.4-44.5-100-.2c-21.3 2-36.9 9.6-47.3 22.8-10.5 13.2-15.6 31.7-15.2 56.1 0 25 5 43.8 15.5 57ZM317 160.3v-40l-72.2.2V119c.1-4.8 1-9.2 2.7-12.3 1.8-3.2 5-5.4 8.7-5.6l72-.3 37 39.1-37.7 39-71.3.2a12 12 0 0 1-8.7-5.4 21 21 0 0 1-2.3-11.7v-1.5Zm-67 11.9a8 8 0 0 0 6.4 3.9l69.8-.2 34.9-36-34.2-36.1-70.7.3c-2.9-.1-4.6 1.3-6 4a19.8 19.8 0 0 0-2.3 9.4l72.2-.3v46.1l-72 .2c0 3.8.5 6.3 2 8.7Z" fill="#090909"/><path d="M34.5 253.5c0 2.4-.3 4.7-1 6.6a14 14 0 0 1-2.6 4.8 11.6 11.6 0 0 1-9 4 11.6 11.6 0 0 1-9-4A14 14 0 0 1 10 260a22.9 22.9 0 0 1 .1-13.1 14 14 0 0 1 2.6-4.8 11.8 11.8 0 0 1 9-4 11.8 11.8 0 0 1 9 4c1.2 1.3 2.2 3 2.8 4.8.6 1.9 1 4 1 6.5Zm-12.7 9.6c.8 0 1.5-.1 2.2-.5.8-.3 1.3-.7 2-1.5a8 8 0 0 0 1.3-2.9 18.2 18.2 0 0 0 0-9.3 8.5 8.5 0 0 0-1.3-3 4.6 4.6 0 0 0-1.8-1.5 5.6 5.6 0 0 0-4.5 0c-.7.3-1.3.8-1.9 1.5-.6.8-1 1.7-1.4 3a18.2 18.2 0 0 0 0 9.3c.3 1.2.8 2.1 1.3 2.9a4.8 4.8 0 0 0 4 2Zm49.3 5.5h-6.2l-9.4-16.5v16.5h-6.7v-30h6.3l9.4 16.6v-16.5H71Zm21.5-5.4h12.9v5.4H86v-30h6.6Zm25.5 5.4v-30h6.6v30Zm43.8 0h-6.2l-9.4-16.5v16.5h-6.7v-30h6.2l9.4 16.6v-16.5h6.7Zm21.6-24.5v6.8h11.7v5.1h-11.7v7.2h12.9v5.4h-19.6v-30h19.6v5.5ZM261 260a8.5 8.5 0 0 1-2.7 6.1c-.8.8-2 1.5-3.1 2-1.2.5-2.7.7-4.2.7a20.4 20.4 0 0 1-4-.4c-.7-.2-1.5-.4-2-.7-.8-.3-1.4-.7-1.9-1.2l-.4-.4 1.2-5.1 1.2.6 1.2.6a28.5 28.5 0 0 0 3.2.9h1.5c1.4 0 2.2-.2 2.9-.7.6-.6.9-1.3.9-2.5 0-.7-.2-1-.6-1.5-.5-.6-1.2-1-2-1.5s-1.7-1-2.7-1.4a22 22 0 0 1-3-1.9 7.5 7.5 0 0 1-3.5-6.6 9 9 0 0 1 .7-3.7 8.7 8.7 0 0 1 5.2-4.5c1-.4 2.3-.6 3.5-.6 1.2 0 2.5.1 3.7.3 1.3.3 2.5.7 3.3 1.2l.7.5-.3.8-.6 1.1-.6 1.1a34.5 34.5 0 0 1-.8 1.5l-.5.5-.7-.3-.6-.4-.6-.3-1.1-.2h-2.1c-.4 0-.7.2-1 .4-.5.2-.8.4-1 .7-.3.3-.5.5-.7 1-.2.3-.2.5-.2.8 0 .8.2 1.3.6 1.7.5.6 1.1 1 2 1.5l2.6 1.3c1.1.5 2.1 1 3 1.7 1 .7 1.9 1.7 2.5 2.7.7 1 1 2.6 1 4.2Zm19.4-15.9v6.8h11.7v5.1h-11.7v7.2h13v5.4h-19.6v-30h19.5v5.5Zm36 14.4h-2.5v10.1h-6.5v-30h9c1.3 0 2.6.3 3.9.7a10.2 10.2 0 0 1 6 5 10.4 10.4 0 0 1-.6 9.8c-1.1 1.5-2 2.2-3.3 3l6.7 11.5h-7.2l-5.2-10h-.3Zm-2.5-5.3h3.2c.4 0 .8 0 1.3-.2a3 3 0 0 0 1.2-.7c.3-.4.6-.8.8-1.5a7.3 7.3 0 0 0 .2-3.9l-.6-1.3c-.3-.4-.7-.7-1.3-1-.6-.4-1.3-.5-2.4-.5H314Zm27-14.5h7.3l5.7 21.4 6.1-21.5h7.3l-9.8 30.2h-7.3Zm39.7 30v-30h6.6v30Zm42.2-3.2a11.8 11.8 0 0 1-8.5 3.3 11.6 11.6 0 0 1-9-4 14 14 0 0 1-2.7-4.7 22.8 22.8 0 0 1 0-13.1 14 14 0 0 1 2.7-4.8 11.8 11.8 0 0 1 9-4 11.8 11.8 0 0 1 8.5 3.3l.8.8-4.8 4.2-.6-.8c-.6-.7-1.1-1-1.8-1.3-.6-.3-1.2-.4-2-.4s-1.5 0-2.3.4c-.7.3-1.3.8-1.9 1.5-.6.8-1 1.7-1.4 3a18.2 18.2 0 0 0 0 9.3c.4 1.2.8 2.1 1.4 2.9a4.8 4.8 0 0 0 4 2c.8 0 1.5-.1 2.2-.4.7-.3 1.2-.7 1.8-1.3l.6-.8 4.8 4.2Zm21.5-21.4v6.8H456v5.1h-11.7v7.2h12.9v5.4h-19.6v-30h19.6v5.5ZM489 260a8.5 8.5 0 0 1-2.7 6.1c-.8.8-2 1.5-3.1 2-1.2.5-2.7.7-4.2.7a20.4 20.4 0 0 1-4-.4l-2.1-.7c-.7-.3-1.3-.7-1.8-1.2l-.4-.4 1.2-5.1 1.2.6 1.1.6a28.5 28.5 0 0 0 3.3.9h1.5c1.4 0 2.2-.2 2.9-.7.6-.6.9-1.3.9-2.5 0-.7-.2-1-.6-1.5-.6-.6-1.2-1-2-1.5l-2.8-1.4-3-1.9c-1-.7-1.8-1.6-2.4-2.6-.7-1-1-2.5-1-4a9 9 0 0 1 .7-3.7 8.6 8.6 0 0 1 5.2-4.5c1-.4 2.3-.6 3.5-.6 1.2 0 2.5.1 3.7.3 1.3.3 2.5.7 3.3 1.2l.7.5-.3.8-.6 1.1-.6 1.1a38.4 38.4 0 0 1-.8 1.5l-.5.5-.7-.3-.6-.4-.6-.3-1.2-.2h-2c-.4 0-.7.2-1 .4-.5.2-.8.4-1 .7a2.8 2.8 0 0 0-1 1.8c0 .8.2 1.3.7 1.7.5.6 1.1 1 1.9 1.5l2.7 1.3c1.1.5 2.1 1 3 1.7 1 .7 1.9 1.7 2.5 2.7.7 1 1 2.6 1 4.2Z" transform="matrix(1 0 0 .8782 0 33.7)" style="white-space:pre"/></svg>