<svg xmlns="http://www.w3.org/2000/svg" viewBox="0 0 92.74 56.72"><path d="M73.18 56.12a100.7 100.7 0 01-2.97-9.4c.01-.34.25.36 1.48 4.35a98.15 98.15 0 001.82 5.52c.03.07.02.13-.02.13s-.18-.27-.3-.6zm-19.7-.76c0-.78.52-3.32 1.23-5.89.37-1.32.45-1.52.6-1.52.1 0 .03.33-.6 2.96a278 278 0 00-.8 3.44c-.27 1.16-.43 1.55-.44 1.01zm8.21-.07c.37-.95.57-2.75.5-4.45l-.04-.85-1.2-.4c-2.22-.75-2.82-1.15-4.2-2.75-.72-.84-.7-.84-1 .17-.24.74-.3.82-.4.52-.05-.13-.1-.23-.14-.23-.03 0-.2.2-.38.45a7.85 7.85 0 01-2.85 2.34c-1.1.5-4.23.98-4.23.66 0-.2.18-.25 1.01-.28a7.95 7.95 0 007-4.59c.06-.15.1-4.74.02-4.74a7 7 0 00-.5.84 13.36 13.36 0 01-2.03 2.9c-1.65 1.82-3.13 2.9-4.27 3.08-.4.07-.62.06-1.49-.08-1.86-.3-2.93-.5-3.6-.72-.37-.12-1.19-.3-1.82-.4-1.4-.24-1.93-.4-2.4-.72-.4-.28-.94-.77-.88-.82.01-.02.27.13.56.33a3.6 3.6 0 001.83.74c.88.1 1.6.25 3 .6 2 .5 3.01.7 4.05.8l.96.07.61-.3c.9-.47 1.42-.9 2.63-2.14a12.48 12.48 0 002.5-3.37c.63-1.15 1.25-2.2 1.82-3.05a8.94 8.94 0 001.43-4.77c0-.33.03-.4.18-.5.1-.07.2-.1.23-.08.1.1-.1 1.7-.27 2.12-.16.43-.16.45-.04.77.17.46 2.14 3.1 3.32 4.44a11.5 11.5 0 001.84 1.76c.1.03 1.5-.96 2.42-1.72.64-.52 1.1-.76 1.33-.7a7 7 0 01.96.5c.44.24 1.26.67 1.84.95 1.02.5 1.06.51 1.7.54.46.02.8 0 1.13-.1.72-.18 2.5-.78 2.55-.86.02-.03.02-.14-.02-.23l-.4-1.78c-.52-2.58-.62-2.9-1.4-4.44a31.23 31.23 0 00-3.19-5.2c-.4-.54-.5-.73-.3-.6.17.1 1.3 1.6 1.86 2.43a21.66 21.66 0 012.25 4.33c.18.45.35.83.38.84.1.07 7.52-.5 9.32-.73a8.44 8.44 0 002.5-.59l.3-.18a14 14 0 001.7-1.2c.31-.3.7-.85.7-1.03 0-.24-.83-.42-3.2-.72-1.6-.2-1.79-.2-1.86-.1-.08.1-.1.1-.3-.08l-.2-.2.98.05c1.04.04 2.17.17 3.58.4.84.14.88.15 1.12.4l.25.28-.05.87c-.04.83-.04.9.13 1.24.18.4 1.16 1.9 2.46 3.8.6.87.77 1.2.76 1.34-.02.16-.12.06-.68-.73a66.88 66.88 0 01-2.5-3.75l-.43-.72v-.68c0-.37-.02-.67-.05-.67-.02 0-.3.25-.63.55a7.41 7.41 0 01-2.72 1.77c-.64.21-3.38.5-6.13.61a59.3 59.3 0 00-4.78.34c-.05.04.04.57.23 1.42l.56 2.6a110 110 0 001.58 6.2c.63 2.3.67 2.45.57 2.45-.2 0-.92-2.27-1.8-5.76-.3-1.2-.57-2.2-.6-2.23-.03-.03-.56.13-1.17.37a8.44 8.44 0 01-2.46.67c-.5 0-2.3-.79-3.73-1.63-.37-.22-.73-.4-.8-.4-.24 0-1.02.45-1.99 1.16-.54.4-1.22.82-1.5.97-.35.17-.56.32-.58.42a156.51 156.51 0 00-1.48 3.7 10.7 10.7 0 00-.7 2.4c.02.03.35.17.75.3.7.21.71.23.78.47.04.14.05.87.03 1.63a8.74 8.74 0 01-.26 2.3c-.2.82-.45 1.5-.56 1.5-.03 0-.02-.05 0-.12zm-.93-6.38a24.1 24.1 0 011.2-3.6c.56-1.42.86-2.27.86-2.48 0-.13-.15-.34-.5-.7-.75-.8-1.1-1.22-2.65-3.3a31.25 31.25 0 00-1.52-1.93c-.03 0-.13.22-.22.5-.1.26-.3.7-.46.93-1.46 2.3-1.38 2.07-1.46 4.14-.04.93-.04 1.9 0 2.32.06.72.06.72.48 1.34a8.6 8.6 0 002.27 2.25c.53.28 1.64.72 1.83.73.08 0 .14-.08.17-.2zm-19.75 6.1c0-.14.08-.5.18-.83.1-.32.17-.6.14-.65-.02-.04-.22-.07-.43-.07a13.51 13.51 0 01-8.65-4.25c-.97-1.05-1.83-2.34-1.97-2.94-.19-.84-.05-1.95.48-3.74.18-.6.31-1.16.3-1.2-.1-.23-1.35.35-3.15 1.42-1 .6-1.05.61-1.6.66-.3.02-1.1.01-1.79-.02-1.38-.07-1.45-.06-2.08.4-.2.14-.38.24-.4.21-.03-.03.15-.24.4-.48l.44-.43 1.9.02 1.91.02.87-.49a19.5 19.5 0 013.06-1.5c.34-.1.66-.25.72-.3a7.6 7.6 0 00.32-2.05c0-.27-.03-.4-.1-.4-.04 0-.27.18-.5.4l-.42.42-.27-.1c-.7-.24-.82-.48-1.36-2.63a37.3 37.3 0 00-1.72-5.23 50.37 50.37 0 01-1.65-4.7 9.15 9.15 0 00-.33-1.06c-.07-.07-.23.21-.43.78-.9 2.53-1.43 3.53-2.73 5.04-.77.9-.98 1.03-2.6 1.72-1.12.47-1.3.7-2.6 3.1-.96 1.76-1.22 2.07-.4.48.98-1.92 1.48-2.78 1.76-3.06.3-.28.8-.56 1.65-.9.9-.35 1.08-.47 1.71-1.1.63-.63 1.28-1.52 1.78-2.44a15.6 15.6 0 001.58-4.38c.04-.53.07-.6.3-.8a4.82 4.82 0 001.7-2.42c.1-.35.2-.43 1-.86.6-.34.86-.57 1.41-1.2.2-.24.73-.74 1.2-1.13a45.6 45.6 0 001.26-1.09c.3-.27.66-.5 1.2-.75.91-.43 1.11-.56 1.4-.94a.94.94 0 00.2-.69c0-.47-.12-1-.26-1.1-.08-.08-.27-.06-.86.1-.88.23-1.05.33-.94.52.2.33.45.42 1.12.42.36 0 .65.03.65.05 0 .07-.76.35-.93.35-.26 0-.7-.32-.84-.63-.08-.16-.19-.32-.24-.34a5.94 5.94 0 00-1.6.46 5 5 0 00-.74.51c-.6.5-1.4 1-2.88 1.78-1.16.62-1.54.76-.95.36.85-.6 1.64-1.78 2.24-3.38.26-.7.46-.94 1.58-1.94a6 6 0 00.85-.9c.32-.52.73-.9 1.7-1.64 1.4-1.05 1.77-1.55 1.77-2.28 0-.43-.17-.9-.32-.9-.03 0-.12.18-.2.4-.13.41-.13.42-.67.7-.3.14-.57.26-.6.26-.04 0-.2-.13-.35-.3l-.29-.3-.62.32c-.85.44-1.57.92-2.13 1.42-.45.4-.97.76-2.2 1.51a5.4 5.4 0 00-1.92 2.01 38.66 38.66 0 01-3.43 4.8c-.49.52-.17.04.52-.78.36-.43.77-.98.92-1.23l.9-1.4c.34-.5.77-1.19.94-1.5.17-.3.43-.72.58-.9a8 8 0 011.88-1.47c.4-.22.85-.62 1.6-1.34.57-.56 1.32-1.23 1.66-1.49a7.55 7.55 0 001.88-1.75c.11-.24.15-.46.15-.88 0-.5-.02-.58-.17-.73-.2-.2-1-.62-1.19-.62-.07 0-.38.24-.7.53-.44.42-.56.57-.54.7.03.16.1.2.5.27.44.1.48.1.65-.05l.5-.37c.45-.3.5-.13.08.25-.78.7-1.55.75-2.1.16-.09-.1-.2-.19-.25-.19-.25 0-1.13.71-2.1 1.7-.9.92-1.24 1.2-1.94 1.66-.96.62-1.5 1.1-1.76 1.53-.1.16-.45.93-.79 1.7-1.1 2.55-1.57 3.46-2.33 4.46-.4.54-2.1 2.27-2.17 2.2-.02 0 .34-.4.8-.86 1.35-1.33 2.04-2.48 3.4-5.65.4-.9.8-1.79.9-1.98.24-.45.84-1 1.73-1.59.9-.6 1.52-1.12 2.26-1.94.55-.6.58-.67.58-.98 0-.35.12-.43.2-.14.02.1.08.18.14.18.26 0 1.86-1 2.46-1.54l.38-.34.4.14c.57.2.8.33 1.06.63l.24.27-.03.8-.03.8h.87c.83 0 .9 0 1.36-.23.7-.33 1-.56 2.1-1.54a10.29 10.29 0 012.7-2c1.43-.7 1.96-.77 4.82-.57 3.75.26 3.76.26 6.28 1.5 1.86.93 2.88 1.51 4.05 2.34l.88.6c.05.01.17-.1.27-.24.17-.26.17-.28.08-.6-.17-.55-.13-.57.17-.12.5.75 1.16 1.25 2.55 1.9.64.3.76.4 1.46 1.3.2.25.65.67 1.05.98.7.52 1.12 1 1.22 1.36.02.1-.05.02-.16-.18a3.65 3.65 0 00-.96-.97c-1.2-.95-1.56-1.28-1.74-1.63-.17-.3-.23-.36-1.17-.8a14.14 14.14 0 01-1.93-1.06c-.1 0-.4.34-.37.42.01.04.2.22.43.4.74.6 1.31 1.4 2.4 3.35.95 1.75 1 1.8 1.41 1.91a6.4 6.4 0 011.44.67c.02.02-.29-.08-.68-.23a7.5 7.5 0 00-1.98-.55l-.42-.05-.2.48c-.17.35-.27.5-.4.52a3.1 3.1 0 01-1.37-.26c-.35-.18-.42-.17-.42.01 0 .4.52.96 1.2 1.3a22 22 0 001.4.58c2.67 1.01 3.8 1.88 4.62 3.54.2.4.54 1.03.77 1.42.63 1.05.68 1.2.73 2.1.02.45.1 1.06.2 1.38.07.31.12.6.1.6a17 17 0 01-1.83-1.53l-.38-.37v-2.09l.3-.3c.15-.18.28-.37.28-.43 0-.4-2.05-3.02-2.23-2.84-.02.02.05.4.15.82.24 1 .31 1.57.44 3.46.15 2.15.1 2.57-.65 4.97a27.12 27.12 0 00-.86 3.34c-.13.46-.75 1.44-.9 1.44-.06 0-.27.13-.45.3l-.34.27-.09.7c-.05.38-.12.7-.16.73-.04.03-.12 0-.18-.06-.1-.1-.1-.2-.02-.72.06-.44.08-1.53.05-3.94-.04-4.22-.06-4.35-1.12-6.86-.58-1.36-.84-1.72-1.43-1.94-.3-.12-.36 0-.15.3.2.25.24.42.1.42-.06 0-.65-.27-1.33-.6a11.6 11.6 0 00-1.4-.65c-.19-.02-.19 0-.18.44.01.45 0 .46-.24.6-.19.12-.27.23-.34.48-.04.18-.12.34-.17.36-.04.02-.5-.18-1.03-.44-.56-.28-.96-.45-.99-.4-.06.1.27.65.55.93.14.14.3.22.42.22.31 0 .4.1.34.38-.03.15-.02.28.02.3.13.08 1.7-.36 2.68-.75l.96-.38.18.17c.21.2.61.97.61 1.17a.9.9 0 01-.1.34c-.12.22-.2.24-1.18.34a1.9 1.9 0 00-.56.1c-.02.03.27.24.65.48.71.44 1.45 1.03 1.28 1.04-.05 0-.42-.2-.83-.43-1.37-.8-2.02-.95-3.82-.78-.62.06-1.16.1-1.2.07a3.52 3.52 0 01-.28-1.25c.01-.03.24-.08.5-.1.54-.07.67-.18.57-.46-.05-.14-.2-.24-.63-.43-.32-.13-.6-.22-.64-.2-.03.02-.04.12-.02.22.07.24 0 .22-.38-.12-.32-.3-.32-.3-.84-.27l-.52.02v.9c0 .82.02.97.2 1.46.11.3.28.63.38.72l.18.17.5-.2c.26-.1.52-.19.58-.19.05 0-.1.2-.33.46-.52.53-.59.65-.68 1.14-.09.45-.06.5.53 1.2.44.5.87 1.12.82 1.17-.05.05-1.86-1.8-1.86-1.9 0-.05.17-.36.37-.68.2-.33.36-.63.36-.67 0-.07-.3-.2-.47-.2-.06 0-.15.08-.2.2-.06.1-.15.18-.2.17l-.47-.12a6.7 6.7 0 00-1-.15c-.85-.07-.84-.2.01-.3.28-.03.51 0 .73.07.44.16.53.15.75-.06l.2-.18-.32-.42a7.7 7.7 0 01-.47-.7l-.17-.3.15-.53c.2-.73.26-1.34.16-1.59a.86.86 0 00-.3-.34c-.23-.13-.24-.13-.18 0 .23.57.23.52-.07.83-.16.16-.32.3-.36.3-.05 0-.3-.15-.55-.33a3.27 3.27 0 00-.52-.33c-.1 0-.07.35.1 1.25l.16.84-.42.5-.67.76-.24.28-.53-.1-.52-.1-.02-.37c-.02-.25-.06-.38-.12-.38-.05 0-.32.08-.6.17l-.5.17-.37-.17a7.6 7.6 0 00-2.5-.53c-.72-.08-1.33-.16-1.37-.18-.09-.06-.08-.38.02-.85.1-.45.28-.84.5-1.03.22-.2.71-.1 1.73.35 1.25.57 1.55.65 2.33.6.55-.06.7-.04 1.11.1.26.1.5.2.52.22.02.04-.05.2-.16.33-.5.63-.48.6-.4.84.1.3.43.63.6.63.17 0 .74-.55 1.07-1.03.26-.38.26-.34.04-1.5l-.14-.85c-.05-.27-.1-.35-.46-.6a3.13 3.13 0 00-.74-.4 2.6 2.6 0 01-.69-.36 7.77 7.77 0 00-.6-.4c-.37-.18-2.43-.8-2.69-.8-.3 0-.78-.57-1.22-1.47-.33-.68-.4-.77-.65-.86a3.43 3.43 0 00-1.2-.26c-.14.06-.36 1.14-.36 1.8 0 .46.04.64.27 1.23.3.77.45 1.51.34 1.72-.06.11-.08.1-.15-.08a1.18 1.18 0 01-.08-.3c0-.06-.2-.34-.47-.63a5.02 5.02 0 01-1.05-1.76c-.17-.55-.23-.47-.18.25.1 1.47-.1 1.92-1.7 3.81a6.85 6.85 0 00-1.45 2.33l-.52 1.35c-.2.52-.23.63-.24 1.6 0 .7-.05 1.16-.13 1.45a8.8 8.8 0 00.06 4.44c.04.15.02.17-.26.17h-.3l.01 1.17c.01.65.02 1.2.01 1.23a4 4 0 01-1.33-.5c-.27-.18-.36-.36-.63-1.2-.25-.75.14-.24.46.61.12.33.15.35.67.56.3.13.57.21.6.2.03-.03.03-.18 0-.35a3.7 3.7 0 01.11-1.66l.13-.4-.23-.4c-.28-.45-.58-.79-.7-.79-.05 0-.13.12-.18.26-.04.14-.1.25-.13.25a1.8 1.8 0 01-.36-.36c-.17-.2-.34-.36-.37-.36-.04 0-.08.2-.1.47-.04.26-.09.47-.13.47-.03 0-.13-.14-.22-.3-.28-.57-.65-.82-.76-.54-.07.17.1 2.12.23 2.76.4 1.98 1.27 3.4 2.44 3.98.28.14.6.26.68.26.22 0 .53-.16.7-.36.1-.08.17-.15.2-.15.02 0 .07.35.1.78.04.87.38 2.82.66 3.85.24.9.47 1.3 1.01 1.81.46.43 3.73 3.14 4.86 4.03.34.27.72.64.83.8.22.35.42 1.2.62 2.6.07.5.17.92.22.97.23.27 4.6.4 5.9.16.4-.07.47-.06.6.05.06.07.13.14.13.17a24.57 24.57 0 01-5.45.04 6.69 6.69 0 00-1.1-.1 6.26 6.26 0 00-.12 2.3c.05.04.24.08.43.1.58.1.6.13.44.85-.07.34-.18.73-.24.87l-.1.25V55zm-.86-2.04c.22-.56-.2-4.88-.55-5.64-.2-.44-.53-.73-2.62-2.35-2.95-2.3-3.48-2.78-3.86-3.53-.3-.6-.4-1.02-.66-2.52a8.4 8.4 0 00-.3-1.37c-.06-.06-.1-.04-.2.08-.12.13-.14.34-.18 1.26-.04 1.28-.16 1.83-.82 3.84l-.4 1.26-.02 1.16v1.16l.35.58c1.87 3.07 5 5.35 8.4 6.12.78.18.77.18.86-.05zm24.93-31.24c.03-.94 0-1.4-.15-1.7a6.6 6.6 0 00-.86-1.36.65.65 0 00-.22.11c-.25.18-.33.58-.27 1.44l.05.76.63.66c.34.36.67.65.72.65.06 0 .1-.16.1-.56zm-6.82-9.67c.17-.14.51-.7.47-.77a4.87 4.87 0 00-1.6-.29c-.36.03-.36.03-.38.28-.02.2.02.3.2.46.35.35 1.07.52 1.31.32zm-24.73-5.3c.26-.7.26-.7.05-.7-.29 0-.88.33-1.1.62-.28.37-.2.47.4.47h.5l.15-.38zM12.16 53.48l.15-.44c.24-.63.48-1.75.73-3.38.25-1.65.25-1.52.1-5.74-.06-1.42-.03-1.54.47-2.3.16-.24.3-.47.3-.52 0-.05-.33-.07-1.08-.04-1.16.04-2.02-.06-3.46-.38-1.47-.34-2.4-.97-2.87-1.97-.23-.48-.23-.5-.15-.98.05-.27.21-.83.37-1.24.35-.93.47-1.48.38-1.74-.04-.1-.28-.35-.53-.54a94.9 94.9 0 01-1.06-.83c-.6-.47-.62-.49-.76-.37-.2.2-.66 1.2-.93 2.05-.35 1.15-.69 1.54-2.73 3.18-1.02.82-1.1.88-1.09.7.02-.18.21-.37.97-.98 1.72-1.38 2.36-2.15 2.6-3.1.22-.85.92-2.15 1.5-2.78a4.5 4.5 0 011.5-.64c.07 0 .33.15.58.33.3.2.5.31.58.3.13-.05 1.31-1.4 1.71-1.97.35-.5.75-.89 1.82-1.78 1.63-1.37 1.84-1.64 2.57-3.3.24-.56.7-1.45 1-1.99.72-1.2.8-1.37 1.56-3.14.35-.78.74-1.65.88-1.92.28-.57 1.06-1.73 1.75-2.62.57-.73.9-1.4 1.44-2.93.65-1.83.86-2.22 1.68-3.22.22-.27.63-.95.96-1.6.32-.62.7-1.28.82-1.47.4-.56 1.25-1.64 1.27-1.62.02.02-.02.13-.09.25-.06.12-.1.26-.07.31.04.12.66.52.75.48a9.06 9.06 0 001.2-1.34c.05-.1.12-.3.14-.43.05-.2.02-.27-.2-.5L26.68 3l-.2.13c-.1.07-.33.25-.5.4-.34.3-.24.13.2-.34.16-.17.33-.3.38-.3.05 0 .28.08.5.2.45.21.43.15.2.93-.1.43-.52.97-1.06 1.43l-.35.3-.46-.25c-.44-.24-.47-.24-.64-.13-.3.2-.8.98-1.42 2.23-.47.96-.7 1.33-1.12 1.83-.65.77-1 1.46-1.5 2.98a9.27 9.27 0 01-1.52 3.16 16.89 16.89 0 00-2.53 4.38c-.43 1-1.15 2.42-1.63 3.22-.5.83-.78 1.37-1.12 2.21a5.73 5.73 0 01-2.18 2.78c-.96.73-2.24 1.97-2.88 2.8-.25.32-.78.93-1.19 1.35-.65.68-.72.7-.36.15.1-.16.1-.18-.02-.27A2.1 2.1 0 006 32.01c-.49.1-.94.34-.94.5 0 .17.65.75 1.13 1 .5.24 1.2.88 1.34 1.2.08.2.05.3-.28 1.2-.66 1.82-.69 2.51-.12 3.25.7.93 3.28 1.7 5.74 1.7.96 0 1.07-.03 1.46-.4.24-.2.24-.2.2-.04-.04.1-.25.47-.5.82-.6.9-.63 1-.63 1.94v.8l.26.11c.15.07.66.22 1.14.34l.86.22.55-.1c.3-.07 1-.3 1.51-.53a10.9 10.9 0 011.2-.45c.2-.03.45.04 1.18.32.52.2 1.08.38 1.26.4.23.05.47.18.9.52.76.6 1.37 1.13 1.33 1.17-.02.02-.36-.18-.76-.44a11.33 11.33 0 00-2.62-1.35c-.98-.33-1.45-.3-2.72.23-.92.37-.96.38-1.67.38-.64 0-.82-.03-1.52-.27a2.83 2.83 0 00-.85-.2c-.04.03 0 .7.06 1.45.13 1.53.1 2.26-.2 3.88a44.63 44.63 0 01-.86 3.74c-.07.13-.29.2-.29.08zm37.52-10.63a6.71 6.71 0 00-1.18-.47c-.47-.1-.65-.05-1.72.5-.36.16-.66.3-.69.26-.08-.08.44-.46 1.04-.76.76-.39 1.2-.44 1.75-.22.92.37 1.7.83 1.7 1.02 0 .1-.07.08-.9-.33zm-2.52-2.82a8.88 8.88 0 01-2.95-1.92c.03-.16.42-.23.68-.14.25.1.55.01 1.6-.42.34-.14.64-.23.7-.2.03.02.52.04 1.07.04.9 0 1.08.01 1.6.18.55.17.6.2.42.26-.1.04-1.04.08-2.1.1-1.84.01-2.1.03-3.32.3-.08 0-.16.05-.16.1 0 .07 1.3.93 1.78 1.17.65.32 1.13.44 1.75.45.56 0 .61 0 1.3-.36.92-.47 1.66-1.15 1.6-1.48-.04-.17-.02-.22.1-.25.13-.03.14-.06.06-.2-.15-.3-.8-.9-1.4-1.3l-.57-.38-.52.27-.5.26-.45-.1-.8-.24-.38-.12-.47.3c-.43.3-.86.68-1.2 1.1-.2.26-.2.04.03-.34a5.35 5.35 0 011.6-1.3c.1-.02.42.05.75.15.75.24.93.23 1.45-.03.24-.12.46-.22.5-.22.12 0 1.5 1.13 1.8 1.5.3.31.32.37.28.62-.12.84-1.14 1.8-2.37 2.24-.78.27-1.1.26-1.88-.04zM42.6 36.9c0-.03.23-.5.5-1.08.36-.73.6-1.15.84-1.38.18-.2.35-.33.37-.3.03.03-.1.27-.28.55-.18.27-.5.84-.7 1.25-.2.41-.43.8-.5.88-.1.12-.23.17-.23.08zm10.73-1.44a6.48 6.48 0 01-.56-1.4c.07-.06.5.65.67 1.12.27.71.2.92-.1.28zm6-1.28c.26-.5.26-.52.28-1.5 0-.68.06-1.23.16-1.73.24-1.19.3-1.2.26-.08-.08 1.88-.33 3.28-.67 3.63-.3.32-.3.23-.03-.32zm25.62-.52c-.38-.4-.57-.63-.52-.63.02 0 .23.21.45.47.47.53.51.63.07.16zm-26.43-.39c-.1-.1-.05-1.3.05-1.44.1-.14.11-.13.2.06.11.33.1 1.18-.05 1.32-.13.13-.14.13-.2.06zm-11.4-.5l-.37-.42-1.07.24-1.08.24-.27-.29a2.2 2.2 0 01-.5-1.2c0-.14-.02-.14-.19.06-.1.12-.3.48-.47.8l-.28.58.02-.37c.06-.75.61-1.5 1.56-2.14l.56-.36.03-.8c.04-.7.06-.82.2-.9.14-.1.14-.1.11.53-.02.44 0 .73.08.94.12.34.12.34-.3.4-.27.06-.85.43-.95.62a2.6 2.6 0 00-.09.7l-.02.6.35.31.4.34c.04.02.2-.12.38-.3.38-.42.66-.57 1.03-.57.26 0 .32.04.78.55.64.7.85.78 1.4.54.2-.1.66-.4 1.01-.66.35-.27.66-.48.68-.48.02 0 .26.2.53.47.28.26.56.47.62.47.3 0 .83-.87.93-1.5.03-.17.08-.3.11-.3.07 0 .3.61.3.82 0 .13-.02.13-.09.02-.12-.22-.26-.14-.4.22-.23.53-.57.88-.86.88a.5.5 0 01-.37-.15c-.2-.23-.55-.35-.98-.35-.35 0-.4.02-.87.43l-.5.44h-1.07l-.36-.42zm35.37-1.86c-.33-.33-.8-.86-1.05-1.18a21.2 21.2 0 00-1.05-1.2c-.32-.33-.96-1.03-1.42-1.55l-1.37-1.53c-.3-.32-.87-1.05-1.27-1.63-.4-.57-.93-1.27-1.2-1.55-.65-.7-.72-.83-1.59-2.5a52.68 52.68 0 00-1.78-3.12c-2.14-3.4-2.59-4.4-3.43-7.6a22.83 22.83 0 00-1.06-3.36c-.18-.35-.53-.67-1.64-1.5-.33-.26-.85-.68-1.14-.93-.3-.26-.87-.68-1.26-.94-.39-.26-.7-.48-.67-.5.08-.08.76.3 1.22.68.85.71 1.01.82 1.22.82.27 0 .27-.16 0-.59-.38-.6-.95-1-1.56-1.07-.32-.04-.39-.08-.6-.36-.32-.42-.3-.52.05-.2.16.14.33.26.37.26.26 0 .07-.62-.26-.84-.15-.1-.29-.1-.7-.08-.27.02-.5.02-.5 0 0-.1.68-.46.82-.44.1.01.8.7 1.58 1.54l1.44 1.52v.38c0 .36.02.4.35.65.2.15.6.54.93.86.58.58.6.6.84 1.38.15.44.46 1.51.7 2.4a21.4 21.4 0 002.72 6.5l1.4 2.27c.38.63.93 1.63 1.22 2.23a8.2 8.2 0 001.58 2.47c.27.28.75.9 1.08 1.37.76 1.1 1 1.4 2.41 3.02.64.73 1.34 1.54 1.55 1.8.22.26.87 1 1.45 1.63 1.3 1.43 1.35 1.5 1.27 1.5-.04 0-.33-.28-.65-.6zm-30.98-.2l-.15-.22.2.1c.17.07.2.06.32-.08.14-.18.25-.2.33-.08.04.07-.37.5-.5.5a.9.9 0 01-.2-.22zm-.9-.54a11.3 11.3 0 00-.43-1.87c-.12-.4-.06-.45.12-.1.14.27.92 2.02.92 2.07 0 .02-.04 0-.08-.05-.12-.12-.28-.1-.28 0 0 .06-.04.16-.1.24-.1.13-.1.1-.15-.3zm1.5-1.48a2.65 2.65 0 01-.47-.46c-.25-.32-.43-.7-.35-.7a9.7 9.7 0 011.2 1.27c.08.16-.06.12-.38-.1zm-10.74-.04c.1-.1 2.65-1.42 2.74-1.42.1 0-.27.33-.64.58-.58.4-1.1.64-1.46.7-.17.02-.39.1-.48.14-.2.13-.3.13-.16 0zm26.3-.8c-.45-.3-.7-.63-.83-1.05-.03-.1.08.01.23.25.16.24.42.54.57.67.3.25.32.31.03.12zm-26.92-1.86c-.08-.13.08-.18.66-.23a6.6 6.6 0 001.9-.53c.2-.08.4-.1.63-.07.58.1.37.26-.32.26-.34 0-.47.04-.8.25-.47.3-.72.36-1.35.31-.26-.02-.48 0-.5.03-.06.1-.16.08-.22-.02zm4.62.04c-.15-.07-.1-.17.23-.54.22-.25.36-.5.48-.86.18-.57.2-.52-.35-1.33a2 2 0 01-.28-.53c.05-.06.67.58.88.9.3.48.24.73-.37 1.53-.13.16-.25.43-.28.6-.05.26-.1.31-.3.23zm7.3-.4a6.77 6.77 0 01-1.52-.58c0-.1.18-.08 1.2.2l1.23.3c.24.02.26.04.14.1-.18.07-.72.06-1.05 0zm1.3-.1c0-.05.6-.42.63-.38.07.07-.05.25-.23.33-.18.08-.4.11-.4.06zM38.4 25.3c0-.05.06-.22.14-.4.08-.16.16-.39.18-.5.03-.15.2-.27.83-.63l1.11-.58a4.38 4.38 0 013.03.15c.26.12.43.24.38.26-.05.02-.43-.06-.83-.16a3.78 3.78 0 00-2.67.17c-.7.31-1.18.66-.92.66.07 0 .42-.15.8-.33.7-.35 1.51-.57 1.84-.5.26.07 1.73.8 1.8.9.06.11-.03.13-1.3.22-.8.07-1.39.07-1.88.03-1.1-.1-1.49-.05-1.9.3-.58.47-.6.5-.6.4zm4.6-.98c.28-.2-.14-.55-.5-.4-.24.08-.22.28.03.4.23.12.3.12.47 0zm23.05.33c-.23-.46-.42-1.12-.34-1.2a4.7 4.7 0 01.55 1.55 1.4 1.4 0 01-.2-.35zm-10.55-.06c-.5-.44-.64-.48-1.18-.4-.83.14-2.2.18-2.26.1a.14.14 0 01.03-.18c.1-.12.1-.32-.03-.44-.23-.23-.74.1-.68.43.02.12-.02.13-.3.11-.45-.03-.52-.13-.26-.34a4.03 4.03 0 011.94-.76c.5 0 1.74.3 2.11.5.23.12.48.35.7.62l.38.52c.04.05.04.1 0 .13-.04.02-.24-.1-.45-.3zm2.1.3l-.36-1.64a25.4 25.4 0 01-.34-1.64c.05-.04.33.66.48 1.22.12.43.36 1.8.37 2.04 0 .03-.04.05-.08.05s-.07 0-.07-.02zm-21.92-.62c.15-.72.85-2.14 1.3-2.64.22-.25.15-.08-.5 1.26l-.8 1.6c-.04.02-.03-.08 0-.22zm20.04-.3c0-.28-.95-.86-1.9-1.19-.6-.2-.73-.2-.97-.06-.1.07-.4.14-.7.16-.45.03-.55.06-.73.24-.26.27-1.36.67-1.36.5 0-.09.52-.4 1.02-.59l.8-.33a3 3 0 012.71.08c.96.47 1.66 1.18 1.25 1.26-.07.01-.12-.02-.12-.08zm-17.22-.3c-.03-.03.14-.16.37-.28.23-.12.83-.49 1.34-.83a5.7 5.7 0 011.8-.92c.04 0 .07.05.07.1 0 .06-.27.24-.6.41-.32.17-.94.55-1.37.85-.93.63-1.5.87-1.6.67zm-13.04-5.7a.57.57 0 01.17-.15c.02 0-.02.07-.1.15a.57.57 0 01-.16.14c-.02 0 .02-.06.1-.14zm43.3-4.4c-.96-.85-1.1-1.1-2.05-3.36a14.68 14.68 0 00-1.32-2.75 32.08 32.08 0 00-4.77-3.04 8.08 8.08 0 00-1.84-.58c-.17 0-.18.01-.14.28.04.23.03.3-.06.3a.22.22 0 01-.15-.08c-.02-.04-.28-.07-.58-.07a1.9 1.9 0 01-.76-.1c-.2-.1-.2-.15-.2-.5 0-.24-.03-.4-.06-.4-.02 0-.18.1-.34.25-.16.15-.3.23-.32.2-.1-.29.82-1.18 1.06-1.05l.68.4c.3.18.6.3.66.3.14-.07 1.3.4 2.36.94 1.54.78 4.2 2.53 4.62 3.05.13.16.32.5.41.72l.48 1.23c.32.82 1 2.38 1.25 2.9.08.15.5.62.92 1.03.82.8.92 1.01.14.32zm-10.6-9.7c.05-.14-.13-.35-.53-.58-.36-.2-.46-.19-.46.1 0 .3.36.6.7.6.15 0 .26-.05.3-.12zm5.48 9.2c-.42-.2-.62-.39-.4-.37.1.01.12-.04.12-.3v-.34l.11.26c.06.14.22.38.35.53.2.23.3.4.2.4zM58.27 2.31a2.53 2.53 0 01-.16-.54c0-.07.2-.32.43-.56.51-.5.65-.53 1.2-.18.7.47 1.01.5 1.45.1.3-.25.35-.2.31.27-.02.27-.03.28-.53.43-.28.1-.64.23-.8.32-.38.18-.63.2-.97.02l-.26-.13.02-.48c.01-.3 0-.49-.05-.49-.04 0-.19.12-.33.27-.27.3-.3.48-.18 1.03.1.45.06.43-.13-.06zm1.85-.55c.03-.18-.22-.43-.57-.57-.24-.1-.28-.1-.36 0-.1.13.03.5.25.65.22.16.66.1.68-.08z"/></svg>