<svg viewBox="301.8 50.3 196.5 108.5" xmlns="http://www.w3.org/2000/svg"><path d="M328 141.1c-1.3 1.7-2.9 3-4.5 3.9-1.6.8-3.8 1.3-6.2 1.3a15.3 15.3 0 0 1-11.4-5 16 16 0 0 1-3-5.5 21 21 0 0 1 0-13.4 17 17 0 0 1 3.2-5.4 15 15 0 0 1 11.4-5c2.4 0 4.6.4 6.4 1.3a13 13 0 0 1 4.7 3.8l.5.7-4.3 5.2-.8-1a7.9 7.9 0 0 0-2.3-1.8c-1-.5-2.3-.8-4.2-.8a5 5 0 0 0-2.6.7 6 6 0 0 0-2 1.9c-.6.9-1 1.8-1.4 3a16.3 16.3 0 0 0 0 7.9c.2 1.2.6 2.2 1.2 3 .6 1 1.2 1.6 2 2 .8.6 1.5.8 2.6.8 1.6 0 2.7-.3 3.8-.7 1-.6 2-1.2 3-2l.8-.6 3.6 5.2-.5.5Zm19.2-29a14.2 14.2 0 0 1 11.2 5c1.3 1.5 2.3 3.4 3 5.5a20.4 20.4 0 0 1 0 13.3c-.8 2-1.9 4-3.2 5.4a15 15 0 0 1-11.4 5 15 15 0 0 1-6.4-1.4c-2-.8-3.7-2.1-5-3.7a16.8 16.8 0 0 1-3-5.4 20.6 20.6 0 0 1 0-13.5 15.1 15.1 0 0 1 14.8-10.3Zm-.5 26.8c1 0 1.8-.2 2.6-.7.8-.5 1.4-1 2-2 .7-.8 1.1-1.8 1.5-3 .4-1.3.5-2.6.5-4a14.8 14.8 0 0 0-1.8-7.2 6.4 6.4 0 0 0-2-2c-.8-.6-1.5-.8-2.5-.8s-1.8.2-2.6.7c-.8.5-1.5 1.1-2 2-.7.9-1.1 1.9-1.4 3a17 17 0 0 0 0 8c.2 1.3.6 2.3 1.2 3.2a7 7 0 0 0 2 2c.8.6 1.5.8 2.5.8Zm27.8-3.6c0 1.2.1 2 .4 2.6.3.6.6.9 1 1.2.5.3 1 .4 1.7.5.7.2 1.5.2 2.4.2h1v6l-.9.2a20.6 20.6 0 0 1-3 .2 52.2 52.2 0 0 1-5.2-.2c-1.4-.3-2.7-1-3.6-2-.7-1-1.4-2-1.8-3.2-.4-1.2-.6-2.3-.7-3.4l-.2-2.5v-34.7h8.9v35Zm16.9 0c0 1.2 0 2 .4 2.6.2.6.5.9 1 1.2.5.3 1 .4 1.7.5.7.2 1.5.2 2.3.2h1v6l-.8.2a20.6 20.6 0 0 1-3.1.2 52.2 52.2 0 0 1-5.2-.2c-1.4-.3-2.7-1-3.5-2-.8-1-1.4-2-1.8-3.2-.4-1.2-.7-2.3-.8-3.4l-.1-2.5v-34.7h8.9v35Zm22.3-23.4c2.7 0 5.2.5 7.3 1.6 2 1.1 3.8 2.6 5.1 4.4a17.8 17.8 0 0 1 3.2 13.6v.9h-22a6.9 6.9 0 0 0 4.6 5.7 8.3 8.3 0 0 0 4.5.4c.6 0 1.1-.2 1.8-.4l2-.9c.6-.3 1-.7 1.5-1.2l.9-.8 3.5 5.4-.4.5a13 13 0 0 1-4.7 3.8c-1.8.9-4.1 1.3-6.7 1.3a14.8 14.8 0 0 1-11.2-5 18.3 18.3 0 0 1-4.4-12.2 18.8 18.8 0 0 1 4.3-12c1.4-1.6 3-2.9 4.8-3.8 1.9-.9 4-1.3 6-1.3Zm7.3 13.5c-.1-.5-.1-.7-.5-1.6-.3-.9-.7-1.6-1.4-2.4a6.1 6.1 0 0 0-2-1.6c-.9-.4-1.7-.6-2.6-.7a7 7 0 0 0-6.5 4.5c-.4 1-.4 1.2-.5 1.8H421Zm20.6 23.2c.3.5.7.9 1.2 1.2l1.5.9a8.4 8.4 0 0 0 3.2.5c2.2 0 3.6-.5 4.8-1.7 1-1 1.6-2.8 1.6-5.5l-1.6.9a16.8 16.8 0 0 1-6.5 1.4 12 12 0 0 1-10.3-5.6c-1-1.6-2-3.5-2.4-5.6a27.4 27.4 0 0 1 .5-14.2 15 15 0 0 1 3.3-5.2 12 12 0 0 1 4.6-3 16.2 16.2 0 0 1 10.4.2c1.6.7 1.7 1 2.5 1.5l.5-2.2h7.9v1l-.1 31.8c-.2 2.4-.7 4.6-1.5 6.3a12 12 0 0 1-7.8 6.8 19.6 19.6 0 0 1-11.8-.5c-2.2-.8-4.1-2.2-5.6-4l-.5-.7 5.5-5.4.6 1Zm12.8-19.7a13.5 13.5 0 0 0-2-7 6 6 0 0 0-2-2c-.8-.5-1.5-.8-2.5-.8s-1.7.3-2.5.8c-.9.5-1.5 1.1-2 2-.7 1-1 2-1.4 3.1a15.4 15.4 0 0 0 1.4 11.1c.6 1 1.2 1.6 2 2 .9.6 1.6.8 2.6.8s1.8-.2 2.6-.7c.8-.5 1.4-1.2 2-2 .5-1 1-2 1.3-3.3.3-1.3.5-2.6.5-4Zm28-17c2.7 0 5.2.5 7.3 1.6 2 1.1 3.8 2.6 5.1 4.4a17.8 17.8 0 0 1 3.2 13.6v.9h-22a6.9 6.9 0 0 0 4.6 5.7 8.3 8.3 0 0 0 4.5.4c.6 0 1.1-.2 1.8-.4l2-.9c.6-.3 1-.7 1.5-1.2l.9-.8 3.5 5.4-.4.5a13 13 0 0 1-4.7 3.8c-1.8.9-4.1 1.3-6.7 1.3a14.8 14.8 0 0 1-11.2-5 18.3 18.3 0 0 1-4.4-12.2 18.8 18.8 0 0 1 4.3-12c1.4-1.6 3-2.9 4.8-3.8 1.9-.9 4-1.3 6-1.3Zm7.3 13.5c-.1-.5-.1-.7-.5-1.6-.3-.9-.7-1.6-1.4-2.4a6.1 6.1 0 0 0-2-1.6c-.9-.4-1.7-.6-2.6-.7a7 7 0 0 0-6.5 4.5c-.4 1-.4 1.2-.5 1.8h13.5Z" style="white-space:pre;stroke-width:2px"/><path d="M350.9 52.4V94h-8.6V71l-7.2 17.8h-7L321 70.9V94h-8.6V52.4h8.2l11 25.6 11-25.6h8.3Zm22 9.1a14 14 0 0 1 10.7 4.9c1.3 1.5 2.3 3.3 3 5.2a19.5 19.5 0 0 1-.1 12.7 14.4 14.4 0 0 1-13.9 10 13.8 13.8 0 0 1-11-4.8 16.2 16.2 0 0 1-2.9-5.3 19.7 19.7 0 0 1 .1-12.8 14.5 14.5 0 0 1 14.1-9.8Zm-.4 25.7c1 0 1.7-.2 2.4-.7a6 6 0 0 0 2-1.8c.5-.9 1-1.8 1.3-3a14 14 0 0 0-1.2-10.5 6.1 6.1 0 0 0-1.9-2c-.7-.5-1.4-.7-2.3-.7-1 0-1.7.2-2.5.6a6 6 0 0 0-2 2c-.5.8-1 1.7-1.3 2.9a16.1 16.1 0 0 0 0 7.6c.3 1.1.7 2 1.2 2.9.6.9 1.2 1.5 2 2 .6.5 1.3.7 2.3.7Zm30-3.4c0 1 0 1.8.3 2.4.3.6.6.9 1 1.1.5.3 1 .5 1.6.6l2.2.1h1v6h-.8a19.4 19.4 0 0 1-3 .3 50 50 0 0 1-4.9-.2c-1.4-.3-2.6-1-3.4-2a8 8 0 0 1-1.7-3c-.4-1-.7-2.2-.8-3.2l-.1-2.4V50.3h8.6v33.5Zm19.4 0c0 1 .2 1.8.4 2.4.3.6.5.9 1 1.1.5.3 1 .5 1.6.6l2.2.1h1v6h-.8a19.4 19.4 0 0 1-3 .3 50.2 50.2 0 0 1-4.9-.2c-1.4-.3-2.6-1-3.4-2a7 7 0 0 1-1.7-3c-.4-1-.7-2.2-.8-3.2l-.1-2.4V50.3h8.5v33.5Zm24.8-22.4a14.6 14.6 0 0 1 11.9 5.8c1.2 1.7 2.1 3.8 2.7 6 .5 2.2.6 4.6.3 7l-.1.9h-21l.6 1.7a6.5 6.5 0 0 0 3.8 3.6 7.8 7.8 0 0 0 4.3.4c.5 0 1-.2 1.7-.4l1.8-.8a6 6 0 0 0 1.5-1.1l.9-1 3.4 5.3-.4.6a13.2 13.2 0 0 1-4.5 3.6c-1.7.8-4 1.2-6.4 1.2a14.1 14.1 0 0 1-10.7-4.8 17.5 17.5 0 0 1-4.3-11.6 18 18 0 0 1 4.2-11.6c1.3-1.4 2.9-2.7 4.6-3.5a13 13 0 0 1 5.7-1.3Zm6.8 13c0-.6 0-.7-.4-1.6-.3-.8-.7-1.5-1.3-2.2a5.8 5.8 0 0 0-2-1.5c-.8-.4-1.5-.6-2.4-.7a6.6 6.6 0 0 0-6.1 4.3l-.5 1.6h12.7Zm33-4.2a13.2 13.2 0 0 0-7 0 5 5 0 0 0-2.3 1V94h-8.5V61.7h7.6l.5 2.2.5-.3a9 9 0 0 1 2.3-1.2 32.1 32.1 0 0 1 7-.9h1v9l-1.2-.3Z" style="fill:#002aff;white-space:pre"/></svg>