<svg viewBox="1.8 45 196.5 113.8" xmlns="http://www.w3.org/2000/svg"><path d="M37.8 68.5a14.2 14.2 0 0 0-7.6 0c-1.2.3-1.8.6-2.4 1.1V94h-9V59.5h8l.6 2.5.6-.5c.7-.5 1.6-1 2.5-1.3l3.1-.7 4.4-.2h1v9.6l-1.2-.4Zm30 15a21.6 21.6 0 0 0 .2 2.9c0 .5.2 1 .4 1.4.2.4.2.4.5.5l1.1.2-2.7 5.6h-.6c-.6 0-1.3-.2-2-.4a8.2 8.2 0 0 1-3.3-2.8l-.2-.2c-.4.7.1 0-.6.5A14.3 14.3 0 0 1 55 94a13.4 13.4 0 0 1-7-.1 9.3 9.3 0 0 1-6-5.3c-.5-1.4-.8-3.2-.8-5a10.2 10.2 0 0 1 4.4-8.7 14 14 0 0 1 4.3-2 19 19 0 0 1 4.8-.6h4l-.3-3.3c-.2-1-.4-1.6-.8-2-.3-.4-.6-.6-1.1-.6a11 11 0 0 0-4.3 0 13 13 0 0 0-3.5 1.6l-1 .8-.9.7-3.6-5.6.5-.5 2-1.5a23 23 0 0 1 10-2.5c1.3 0 2.5.1 3.6.4 1.2.2 2.4.7 3.4 1.2 1 .6 1.9 1.5 2.6 2.5A10 10 0 0 1 67 67a33.8 33.8 0 0 1 .7 8.4v8Zm-9-5.2H56c-.7 0-1.4 0-2.2.2-.8.1-1.4.4-2 .8a3 3 0 0 0-1.5 1.4c-.5.7-.6 1.4-.6 2.5 0 1.8.2 2.8 1 3.5.7.7 1.6 1 3 1 1 0 2-.3 2.9-.8a6 6 0 0 0 2-2v-6.6Zm18 12.1c-1.5-1.7-2.7-4-3.4-6.5a28 28 0 0 1-1.1-7.6c0-3 .5-5.8 1.3-8 .9-2 2-3.9 3.4-5.2 1.4-1.3 3-2.4 4.8-3a14.7 14.7 0 0 1 10.6.2c1.6.7 1.4.7 2 1.2V47.2h9V94h-8.3l1.3-4.6a4.7 4.7 0 0 1-1.6 2.3L95 94h-.2v-.9l-.2-1.4c-.6.5-1.3.9-2 1.2a15.2 15.2 0 0 1-6.7 1.4 11.3 11.3 0 0 1-9.2-4Zm4.9-13.6a14 14 0 0 0 2 7.3c.5.9 1.2 1.5 2 2s1.6.7 2.6.7 1.8-.2 2.6-.7c.9-.5 1.5-1.2 2.1-2 .6-1 1-2 1.4-3.3a16 16 0 0 0 0-8.1c-.4-1.3-.8-2.3-1.4-3.3a7 7 0 0 0-2.2-2c-.8-.6-1.6-.8-2.6-.8s-1.9.2-2.7.7a6 6 0 0 0-2 2.2 16 16 0 0 0-1.8 7.4ZM108.9 94V59.5h9V94h-9Zm9.7-43.9c0 1.4-.6 2.7-1.5 3.7a5.3 5.3 0 0 1-7.3 0c-.9-1-1.5-2.3-1.5-3.7 0-1.3.6-2.7 1.5-3.6a5 5 0 0 1 3.6-1.5c1.4 0 2.7.6 3.7 1.5.9 1 1.5 2.3 1.5 3.6Zm13.6 9.4v18.7a21.7 21.7 0 0 0 .8 6.5c.4.7.8 1.2 1.4 1.7.6.5 1.4.6 2.5.6a11.3 11.3 0 0 0 3.4-.6c.7-.2 1.3-.4 1.9-.8l.9-.6V59.5h9V94H144l-.6-2.6c-.2.2.2 0-.6.4a21 21 0 0 1-5 2.2 12.3 12.3 0 0 1-5.6 0 9 9 0 0 1-2.3-.9 15.8 15.8 0 0 1-3.7-3 9.1 9.1 0 0 1-1.8-2.5l-.9-3-.3-3V59.5h9Zm28.4 24.8.8.7c.7.5 1.6 1 2.6 1.4 1 .4 2 .6 3.6.6 2 0 3.4-.3 4.5-.9 1-.5 1.2-1 1.2-2 0-.7-.1-1-.6-1.4-.7-.5-1.4-1-2.4-1.3l-3.3-1.2c-1.3-.3-2.5-.8-3.6-1.4a16.8 16.8 0 0 1-4.8-3.6 8.3 8.3 0 0 1-1.8-5.4 10.2 10.2 0 0 1 4-8.1 13 13 0 0 1 4-2c1.5-.5 3-.8 4.5-.8 2 0 3.9.3 5.6.7a17 17 0 0 1 5 2.2l.7.4-3.1 6.6-1-.5c-1-.7-2.1-1-3.4-1.3-1.3-.2-2.5-.3-3.8-.3-1.3 0-2 .2-2.8.7-.6.5-.8 1-.8 2.2 0 .8.2 1.2.7 1.6.7.6 1.6 1 2.7 1.5l3.8 1.3c1.4.5 2.7 1.2 4 1.9a11 11 0 0 1 3.1 3 8 8 0 0 1 1.4 4.7 11 11 0 0 1-1.1 4.8c-.7 1.3-1.8 2.5-3 3.4-1.2.8-2.6 1.5-4.2 2a42 42 0 0 1-10.4.1l-2.6-1-2.8-1.6-.8-.6 4-6.4Z" style="fill:red;white-space:pre"/><path d="M28 141.1c-1.3 1.7-2.9 3-4.5 3.9-1.6.8-3.8 1.3-6.2 1.3a15.3 15.3 0 0 1-11.4-5 16 16 0 0 1-3-5.5 21 21 0 0 1 0-13.4 17 17 0 0 1 3.2-5.4 15 15 0 0 1 11.4-5c2.4 0 4.6.4 6.4 1.3a13 13 0 0 1 4.7 3.8l.5.7-4.3 5.2-.8-1a7.9 7.9 0 0 0-2.3-1.8c-1-.5-2.3-.8-4.2-.8a5 5 0 0 0-2.6.7 6 6 0 0 0-2 1.9c-.6.9-1 1.8-1.4 3a16.3 16.3 0 0 0 0 7.9c.2 1.2.6 2.2 1.2 3 .6 1 1.2 1.6 2 2 .8.6 1.5.8 2.6.8 1.6 0 2.7-.3 3.8-.7 1-.6 2-1.2 3-2l.8-.6 3.6 5.2-.5.5Zm19.2-29a14.2 14.2 0 0 1 11.2 5c1.3 1.5 2.3 3.4 3 5.5a20.4 20.4 0 0 1 0 13.3c-.8 2-1.9 4-3.2 5.4a15 15 0 0 1-11.4 5 15 15 0 0 1-6.4-1.4c-2-.8-3.7-2.1-5-3.7a16.8 16.8 0 0 1-3-5.4 20.6 20.6 0 0 1 0-13.5A15.1 15.1 0 0 1 47.2 112Zm-.5 26.8c1 0 1.8-.2 2.6-.7.8-.5 1.4-1 2-2 .7-.8 1.1-1.8 1.5-3 .4-1.3.5-2.6.5-4a14.8 14.8 0 0 0-1.8-7.2 6.4 6.4 0 0 0-2-2c-.8-.6-1.5-.8-2.5-.8s-1.8.2-2.6.7c-.8.5-1.5 1.1-2 2-.7.9-1.1 1.9-1.4 3a17 17 0 0 0 0 8c.2 1.3.6 2.3 1.2 3.2a7 7 0 0 0 2 2c.8.6 1.5.8 2.5.8Zm27.8-3.6c0 1.2.1 2 .4 2.6.3.6.6.9 1 1.2.5.3 1 .4 1.7.5.7.2 1.5.2 2.4.2h1v6l-.9.2a20.6 20.6 0 0 1-3 .2 52.2 52.2 0 0 1-5.2-.2c-1.4-.3-2.7-1-3.6-2-.7-1-1.4-2-1.8-3.2-.4-1.2-.6-2.3-.7-3.4l-.2-2.5v-34.7h8.9v35Zm16.9 0c0 1.2 0 2 .4 2.6.2.6.5.9 1 1.2.5.3 1 .4 1.7.5.7.2 1.5.2 2.3.2h1v6l-.8.2a20.6 20.6 0 0 1-3.1.2 52.2 52.2 0 0 1-5.2-.2c-1.4-.3-2.7-1-3.5-2-.8-1-1.4-2-1.8-3.2-.4-1.2-.7-2.3-.8-3.4l-.1-2.5v-34.7h8.9v35Zm22.3-23.4c2.7 0 5.2.5 7.3 1.6 2 1.1 3.8 2.6 5.1 4.4a17.8 17.8 0 0 1 3.2 13.6v.9h-22a6.9 6.9 0 0 0 4.6 5.7 8.3 8.3 0 0 0 4.5.4c.6 0 1.1-.2 1.8-.4l2-.9c.6-.3 1-.7 1.5-1.2l.9-.8 3.5 5.4-.4.5a13 13 0 0 1-4.7 3.8c-1.8.9-4.1 1.3-6.7 1.3a14.8 14.8 0 0 1-11.2-5 18.3 18.3 0 0 1-4.4-12.2 18.8 18.8 0 0 1 4.3-12c1.4-1.6 3-2.9 4.8-3.8 1.9-.9 4-1.3 6-1.3Zm7.3 13.5c-.1-.5-.1-.7-.5-1.6-.3-.9-.7-1.6-1.4-2.4a6.1 6.1 0 0 0-2-1.6c-.9-.4-1.7-.6-2.6-.7a7 7 0 0 0-6.5 4.5c-.4 1-.4 1.2-.5 1.8H121Zm20.6 23.2c.3.5.7.9 1.2 1.2l1.5.9a8.4 8.4 0 0 0 3.2.5c2.2 0 3.6-.5 4.8-1.7 1-1 1.6-2.8 1.6-5.5l-1.6.9a16.8 16.8 0 0 1-6.5 1.4 12 12 0 0 1-10.3-5.6c-1-1.6-2-3.5-2.4-5.6a27.4 27.4 0 0 1 .5-14.2 15 15 0 0 1 3.3-5.2 12 12 0 0 1 4.6-3 16.2 16.2 0 0 1 10.4.2c1.6.7 1.7 1 2.5 1.5l.5-2.2h7.9v1l-.1 31.8c-.2 2.4-.7 4.6-1.5 6.3a12 12 0 0 1-7.8 6.8 19.6 19.6 0 0 1-11.8-.5c-2.2-.8-4.1-2.2-5.6-4l-.5-.7 5.5-5.4.6 1Zm12.8-19.7a13.5 13.5 0 0 0-2-7 6 6 0 0 0-2-2c-.8-.5-1.5-.8-2.5-.8s-1.7.3-2.5.8c-.9.5-1.5 1.1-2 2-.7 1-1 2-1.4 3.1a15.4 15.4 0 0 0 1.4 11.1c.6 1 1.2 1.6 2 2 .9.6 1.6.8 2.6.8s1.8-.2 2.6-.7c.8-.5 1.4-1.2 2-2 .5-1 1-2 1.3-3.3.3-1.3.5-2.6.5-4Zm28-17c2.7 0 5.2.5 7.3 1.6 2 1.1 3.8 2.6 5.1 4.4a17.8 17.8 0 0 1 3.2 13.6v.9h-22a6.9 6.9 0 0 0 4.6 5.7 8.3 8.3 0 0 0 4.5.4c.6 0 1.1-.2 1.8-.4l2-.9 1.5-1.2.9-.8 3.5 5.4-.4.5a13 13 0 0 1-4.7 3.8c-1.8.9-4.1 1.3-6.7 1.3a14.8 14.8 0 0 1-11.2-5 18.3 18.3 0 0 1-4.4-12.2 18.8 18.8 0 0 1 4.3-12c1.4-1.6 3-2.9 4.8-3.8 1.9-.9 4-1.3 6-1.3Zm7.3 13.5c-.1-.5-.1-.7-.5-1.6-.3-.9-.7-1.6-1.4-2.4a6.1 6.1 0 0 0-2-1.6c-.9-.4-1.7-.6-2.6-.7a7 7 0 0 0-6.5 4.5c-.4 1-.4 1.2-.5 1.8h13.5Z" style="white-space:pre;stroke-width:2px"/></svg>